<?xml version="1.0" standalone="no"?>
<!DOCTYPE svg PUBLIC "-//W3C//DTD SVG 1.1//EN" "http://www.w3.org/Graphics/SVG/1.1/DTD/svg11.dtd">
<svg xmlns="http://www.w3.org/2000/svg">
<metadata>Generated by Fontastic.me</metadata>
<defs>
<font id="dia" horiz-adv-x="512">
<font-face font-family="dia" units-per-em="512" ascent="480" descent="-32"/>
<missing-glyph horiz-adv-x="512" />

<glyph glyph-name="angle-down" unicode="&#97;" d="M399 302c0-3-1-5-3-7l-133-133c-2-2-5-3-7-3-2 0-5 1-7 3l-133 133c-2 2-3 4-3 7 0 2 1 4 3 6l15 15c1 1 4 2 6 2 3 0 5-1 7-2l112-113 112 113c2 1 4 2 7 2 2 0 5-1 6-2l15-15c2-2 3-4 3-6z"/>
<glyph glyph-name="angle-right" unicode="&#98;" d="M335 238c0-3-1-5-3-7l-133-133c-2-2-5-3-7-3-2 0-5 1-7 3l-14 14c-2 2-3 4-3 7 0 2 1 5 3 6l112 113-112 112c-2 2-3 4-3 7 0 2 1 4 3 6l14 14c2 2 5 3 7 3 2 0 5-1 7-3l133-133c2-2 3-4 3-6z"/>
<glyph glyph-name="angle-left" unicode="&#99;" d="M344 357c0-3-1-5-3-7l-112-112 112-113c2-1 3-4 3-6 0-3-1-5-3-7l-14-14c-2-2-5-3-7-3-2 0-5 1-7 3l-133 133c-2 2-3 4-3 7 0 2 1 4 3 6l133 133c2 2 5 3 7 3 2 0 5-1 7-3l14-14c2-2 3-4 3-6z"/>
<glyph glyph-name="angle-up" unicode="&#100;" d="M399 174c0-3-1-5-3-7l-15-14c-1-2-4-3-6-3-3 0-5 1-7 3l-112 112-112-112c-2-2-4-3-7-3-2 0-5 1-6 3l-15 14c-2 2-3 4-3 7 0 2 1 4 3 6l133 133c2 2 5 3 7 3 2 0 5-1 7-3l133-133c2-2 3-4 3-6z"/>
<glyph glyph-name="chevron-down" unicode="&#105;" d="M481 281l-212-212c-4-3-8-5-13-5-5 0-9 2-13 5l-212 212c-3 4-5 8-5 13 0 5 2 10 5 13l48 47c3 4 7 6 12 6 5 0 10-2 13-6l152-151 152 151c3 4 8 6 13 6 5 0 9-2 12-6l48-47c3-3 5-8 5-13 0-5-2-9-5-13z"/>
<glyph glyph-name="chevron-left" unicode="&#106;" d="M408 426l-152-152 152-151c3-4 5-8 5-13 0-5-2-10-5-13l-48-48c-3-3-8-5-13-5-5 0-9 2-12 5l-212 212c-4 4-6 8-6 13 0 5 2 10 6 13l212 212c3 4 7 6 12 6 5 0 10-2 13-6l48-47c3-4 5-8 5-13 0-5-2-9-5-13z"/>
<glyph glyph-name="chevron-right" unicode="&#107;" d="M389 261l-212-212c-3-3-7-5-12-5-5 0-10 2-13 5l-48 48c-3 3-5 8-5 13 0 5 2 9 5 13l152 151-152 152c-3 4-5 8-5 13 0 5 2 9 5 13l48 47c3 4 8 6 13 6 5 0 9-2 12-6l212-212c4-3 6-8 6-13 0-5-2-9-6-13z"/>
<glyph glyph-name="chevron-up" unicode="&#108;" d="M481 132l-48-47c-3-4-7-6-12-6-5 0-10 2-13 6l-152 151-152-151c-3-4-8-6-13-6-5 0-9 2-12 6l-48 47c-3 3-5 8-5 13 0 5 2 9 5 13l212 211c4 4 8 6 13 6 5 0 9-2 13-6l212-211c3-4 5-8 5-13 0-5-2-10-5-13z"/>
<glyph glyph-name="google-plus-square" unicode="&#110;" d="M273 164c0-14-5-25-16-32-11-7-25-11-40-11-8 0-16 1-23 3-8 2-15 5-22 8-7 4-12 9-16 15-4 7-7 14-7 23 0 8 3 16 8 23 4 6 11 11 18 14 8 4 16 6 24 7 8 2 16 3 24 3 4 0 7-1 9-1 0 0 2-2 6-5 4-3 7-4 8-5 1-1 3-3 6-5 4-3 6-5 7-7 2-1 3-3 6-6 2-3 4-5 5-7 0-3 1-5 2-8 1-3 1-6 1-9z m-21 156c0-12-3-21-9-29-6-7-15-11-26-11-11 0-19 4-27 12-8 8-13 17-16 28-4 10-5 20-5 30 0 12 3 22 9 30 6 8 15 12 26 12 10 0 19-4 27-13 7-8 13-18 16-29 4-10 5-21 5-30z m31 73l25 18-76 0c-16 0-32-3-46-9-14-6-27-15-36-28-10-12-15-27-15-43 0-18 6-33 18-45 13-11 28-17 46-17 4 0 8 0 12 1-3-6-4-11-4-16 0-8 4-17 12-27-34-2-58-8-74-18-9-5-16-12-21-20-6-9-9-18-9-28 0-8 2-15 6-22 3-6 8-12 14-16 5-4 12-8 19-10 8-3 15-5 22-6 8-2 15-2 22-2 12 0 23 1 35 4 11 3 22 8 32 13 10 6 18 14 25 24 6 10 9 21 9 33 0 10-2 18-6 26-3 8-8 14-14 19-5 5-11 9-16 14-6 4-10 8-14 12-4 4-6 9-6 13 0 4 2 8 5 12 3 4 6 8 10 11 4 4 9 8 13 12 4 5 8 10 11 17 3 7 4 15 4 24 0 11-2 21-6 28-5 8-12 16-21 26z m83-128l36 0 0 18-36 0 0 37-19 0 0-37-36 0 0-18 36 0 0-46 19 0z m109 128l0-274c0-23-8-42-24-58-16-16-35-24-58-24l-274 0c-23 0-42 8-58 24-16 16-24 35-24 58l0 274c0 23 8 42 24 58 16 16 35 24 58 24l274 0c23 0 42-8 58-24 16-16 24-35 24-58z"/>
<glyph glyph-name="instagram" unicode="&#111;" d="M426 105l0 185-39 0c4-12 6-25 6-38 0-24-6-46-18-66-13-20-29-36-50-48-21-12-44-18-69-18-37 0-69 13-96 39-27 26-40 57-40 93 0 13 2 26 6 38l-41 0 0-185c0-5 2-10 5-13 4-3 8-5 13-5l305 0c5 0 9 2 13 5 3 3 5 8 5 13z m-81 152c0 23-9 44-26 60-18 17-38 25-63 25-24 0-45-8-62-25-17-16-26-37-26-60 0-24 9-44 26-61 17-16 38-25 62-25 25 0 45 9 63 25 17 17 26 37 26 61z m81 103l0 47c0 5-2 10-6 14-4 4-8 6-14 6l-50 0c-5 0-10-2-14-6-4-4-5-9-5-14l0-47c0-6 1-10 5-14 4-4 9-6 14-6l50 0c6 0 10 2 14 6 4 4 6 8 6 14z m49 59l0-326c0-16-5-29-16-40-11-11-24-16-40-16l-326 0c-16 0-29 5-40 16-11 11-16 24-16 40l0 326c0 16 5 29 16 40 11 11 24 16 40 16l326 0c16 0 29-5 40-16 11-11 16-24 16-40z"/>
<glyph glyph-name="youtube" unicode="&#112;" d="M314 157l0-61c0-12-4-19-11-19-5 0-9 2-13 6l0 86c4 5 8 7 13 7 7 0 11-7 11-19z m97-1l0-13-26 0 0 13c0 13 4 20 13 20 8 0 13-7 13-20z m-276 63l30 0 0 26-89 0 0-26 30 0 0-163 29 0z m82-163l25 0 0 141-25 0 0-108c-6-8-11-12-16-12-4 0-6 2-6 6-1 1-1 4-1 10l0 104-25 0 0-112c0-9 1-16 2-20 2-7 8-11 17-11 9 0 19 6 29 17z m122 42l0 57c0 13 0 23-2 28-3 11-10 16-20 16-10 0-19-5-27-16l0 62-25 0 0-189 25 0 0 14c9-11 17-16 27-16 10 0 17 5 20 16 2 5 2 14 2 28z m97 3l0 4-26 0c0-10 0-16-1-18-1-6-5-10-11-10-9 0-13 7-13 20l0 25 51 0 0 29c0 15-3 26-8 33-7 10-17 15-30 15-13 0-23-5-31-15-5-7-8-18-8-33l0-49c0-15 3-26 9-33 7-10 17-15 31-15 13 0 24 5 30 15 4 5 6 10 6 16 1 1 1 7 1 16z m-174 261l0 60c0 13-4 20-12 20-8 0-12-7-12-20l0-60c0-13 4-20 12-20 8 0 12 7 12 20z m206-215c0-44-3-77-8-100-2-11-8-20-16-28-9-7-18-12-29-13-35-4-88-6-159-6-71 0-124 2-159 6-11 1-20 6-29 13-8 8-14 17-16 28-5 22-8 55-8 100 0 45 3 78 8 100 2 12 8 21 16 29 9 7 18 12 30 13 35 4 87 6 158 6 71 0 124-2 159-6 11-1 20-6 29-13 8-8 14-17 16-29 5-21 8-54 8-100z m-285 365l29 0-35-114 0-77-28 0 0 77c-3 14-9 34-18 61-7 19-13 37-18 53l30 0 20-75z m105-95l0-50c0-16-2-27-8-34-7-10-17-14-30-14-13 0-23 4-30 14-5 7-8 19-8 34l0 50c0 15 3 26 8 33 7 10 17 15 30 15 13 0 23-5 30-15 6-7 8-18 8-33z m96 46l0-142-26 0 0 15c-10-12-20-17-29-17-9 0-15 3-17 10-2 5-3 12-3 22l0 112 26 0 0-105c0-6 1-9 1-10 0-4 2-6 6-6 5 0 10 4 16 12l0 109z"/>
<glyph glyph-name="times-circle-o" unicode="&#120;" d="M350 204l-42-42c-2-2-4-3-6-3-3 0-5 1-7 3l-39 39-39-39c-2-2-4-3-7-3-2 0-4 1-6 3l-42 42c-2 2-3 4-3 6 0 3 1 5 3 7l39 39-39 39c-2 2-3 4-3 7 0 2 1 4 3 6l42 42c2 2 4 3 6 3 3 0 5-1 7-3l39-39 39 39c2 2 4 3 7 3 2 0 4-1 6-3l42-42c2-2 3-4 3-6 0-3-1-5-3-7l-39-39 39-39c2-2 3-4 3-7 0-2-1-4-3-6z m61 52c0 28-7 54-20 78-14 24-33 43-57 57-24 13-50 20-78 20-28 0-54-7-78-20-24-14-43-33-57-57-13-24-20-50-20-78 0-28 7-54 20-78 14-24 33-43 57-57 24-13 50-20 78-20 28 0 54 7 78 20 24 14 43 33 57 57 13 24 20 50 20 78z m64 0c0-40-9-77-29-110-20-34-46-60-80-80-33-20-70-29-110-29-40 0-77 9-110 29-34 20-60 46-80 80-20 33-29 70-29 110 0 40 9 77 29 110 20 34 46 60 80 80 33 20 70 29 110 29 40 0 77-9 110-29 34-20 60-46 80-80 20-33 29-70 29-110z"/>
<glyph glyph-name="charcuteria-y-quesos" unicode="&#79;" d="M139 413c-76 0-138-71-138-159 0-88 62-159 138-159 72 0 256 21 274 140l44 0c0-17 13-31 28-31 15 0 27 14 27 31 0 7-2 13-6 19 4 5 6 12 6 19 0 17-12 31-27 31-15 0-28-14-28-31l-44 0c-19 113-203 140-274 140z m-32-286c-47 0-86 58-86 127 0 69 39 127 86 127 46 0 86-58 86-127 0-69-40-127-86-127z m-3 190c-21 0-37-28-37-63 0-35 16-63 37-63 20 0 37 28 37 63 0 35-17 63-37 63z"/>
<glyph glyph-name="frescos" unicode="&#80;" d="M248 372c-2 2-39 54-51 136l24 4c12-76 47-124 47-125z m10 29c8 22 20 36 32 49 12 11 26 21 40 28 15 7 31 12 48 14 18 2 36 2 58-5-8-21-20-36-32-48-12-12-26-22-41-29-14-7-31-12-48-14-17-2-35-1-57 5z m0-13c-104 25-231-13-223-135 0-103 68-243 187-252 3 0 52 8 62 0 123 0 198 145 198 252 7 122-120 160-224 135z"/>
<glyph glyph-name="alimentacion" unicode="&#81;" d="M386 317l-107 0c9 0 18 8 18 18 0 10-8 18-18 18l-44 0c-10 0-18-8-18-18 0-10 8-18 18-18l-108 0c-30 0-54-27-59-55l378 0c-5 29-30 55-60 55z m61-78l0 5-443 0 0-26 63 0 0-156c0-33 27-60 60-60l259 0c34 0 61 27 61 60l0 152 60 0 0 25z m-276 182c2-2 4-4 5-7l5-4c3-3 6-7 8-9 1-2 2-3 3-4 1-1 2-2 2-3 0-1-1-3-3-5-1-2-3-4-5-5 3-1 5-2 9-1 3 0 6 1 9 4 3 3 4 8 4 11 1 4 0 8-1 11-2 6-5 11-8 16-1 2-3 4-4 6-2 2-3 4-4 5-5 7-8 13-9 20-2 7 0 16 4 26-11-2-21-12-24-25-2-6-1-13 0-19 3-6 6-12 9-17z m66 0c1-2 3-4 5-7l5-4c3-3 6-7 8-9 1-2 2-3 3-4 0-1 1-2 1-3 0-1 0-3-2-5-1-2-3-4-5-5 3-1 5-2 8-1 4 0 7 1 10 4 2 3 4 8 4 11 0 4 0 8-1 11-2 6-5 11-8 16-1 2-3 4-5 6-1 2-2 4-3 5-5 7-9 13-10 20-1 7 0 16 5 26-11-2-21-12-24-25-2-6-1-13 0-19 2-6 5-12 9-17z m59 0c2-2 4-4 5-7l5-4c3-3 6-7 8-9 1-2 2-3 3-4 1-1 1-2 1-3 1-1 0-3-2-5-1-2-3-4-5-5 3-1 5-2 8-1 4 0 7 1 10 4 2 3 4 8 4 11 0 4 0 8-1 11-2 6-5 11-8 16-1 2-3 4-5 6-1 2-2 4-3 5-5 7-8 13-9 20-2 7 0 16 4 26-11-2-21-12-24-25-2-6-1-13 0-19 2-6 6-12 9-17z"/>
<glyph glyph-name="bebe" unicode="&#82;" d="M123 22c9-10 24-10 33 0l83 82-41 40c-6 7-6 17 0 23l2 2c6 6 16 6 22 0l41-41 27 28-40 41c-6 6-6 16 0 22l2 2c6 6 16 6 22 0l41-41 45 46-48 49-85 85-205-204c-9-9-9-25 0-34z m315 343c0 4 0 9 0 14 1 19 12 37 28 48 2 2 4 3 6 5 13 14 16 34 5 44-11 11-31 9-44-5-2-2-4-3-5-6-12-16-29-26-49-27-5-1-9 0-13 0-23 2-45-4-64-16l120-120c13 19 18 41 16 63z m-200 7l94-94 40-41 0 0c5-5 11-7 16-7 6 0 12 2 16 7l14 14c9 9 9 23 0 32l-5 6-129 129c-5 5-11 7-16 7-6 0-12-2-16-7l-14-14c-9-9-9-23 0-32z"/>
<glyph glyph-name="bebidas" unicode="&#83;" d="M340 343l-35 78 0 23 12 0 0 64-124 0 0-64 11 0 0-25-34-81-1-335 172 0 0 332z m-29-37c0-8-6-15-14-15-5 0-9 3-12 6 1-2 1-4 1-6 0-11-8-20-20-20-11 0-20 9-20 20 0 11 9 20 20 20 7 0 13-3 17-9-1 1-1 3-1 4 0 8 6 15 15 15 8 0 14-7 14-15z m-103 77l13 31 0 43 67 0 0-39 0-8 3 0 8-20c-12 6-32 11-45-4-21-23-38 0-46-3z m34-39c0-10-8-19-19-19-10 0-19 9-19 19 0 10 9 19 19 19 10 0 19-9 19-19z m33-3c0-6-6-12-12-12-7 0-12 6-12 12 0 6 5 12 12 12 7 0 12-6 12-12z m-67-33c7 0 13-6 13-13 0-7-6-13-13-13-8 0-13 6-13 13 0 7 5 13 13 13z m-10-61l110 0 0-146-110 0z m48-226l-46 0c-1 2-1 4-1 7 0 13 11 24 24 24 13 0 24-11 24-24 0-3-1-5-1-7z m51 0l-20 0c-11 4-19 14-19 27 0 16 13 29 29 29 16 0 29-12 29-29 0-13-8-23-19-27z m-85 274c0 3-2 5-5 5-2 0-4-2-4-5 0-5 9-5 9 0z m46 46c0-3 2-5 5-5 3 0 6 2 6 5 0 3-3 5-6 5-3 0-5-2-5-5z m9-47c-2 0-3-1-3-3 0-3 6-3 6 0-1 2-2 3-3 3z m27 12c0-3 5-3 5 0 0 1-1 2-2 2-2 0-3-1-3-2z m-64-278c0 3-3 6-7 6-4 0-7-3-7-6 0-4 3-7 7-7 4 0 7 3 7 7z m69 20c0 7-5 12-12 12-7 0-12-5-12-12 0-6 5-12 12-12 7 0 12 6 12 12z"/>
<glyph glyph-name="charcuteria-y-quesos-1" unicode="&#84;" d="M139 413c-76 0-138-71-138-159 0-88 62-159 138-159 72 0 256 21 274 140l44 0c0-17 13-31 28-31 15 0 27 14 27 31 0 7-2 13-6 19 4 5 6 12 6 19 0 17-12 31-27 31-15 0-28-14-28-31l-44 0c-19 113-203 140-274 140z m-32-286c-47 0-86 58-86 127 0 69 39 127 86 127 46 0 86-58 86-127 0-69-40-127-86-127z m-3 190c-21 0-37-28-37-63 0-35 16-63 37-63 20 0 37 28 37 63 0 35-17 63-37 63z"/>
<glyph glyph-name="congelados-helados" unicode="&#85;" d="M250 344c-10-17-29-28-50-28-11 0-21 3-29 8l86-320 84 323c-11-7-23-11-37-11-22 0-42 11-54 28z m97 105c0 1 0 3 0 4 0 25-19 44-44 44-18 0-33-10-40-25-3 20-21 36-42 36-23 0-42-19-42-43 0-6 1-11 3-16-24-8-42-30-42-57 0-22 12-41 31-52 8-4 18-8 29-8 21 0 40 12 50 28 12-17 32-28 54-28 14 0 26 5 37 12 18 12 29 32 29 55 0 20-9 38-23 50z"/>
<glyph glyph-name="desayuno-dulces-pan" unicode="&#86;" d="M11 130l2-5 1-2 0 0c0-2 0-1 0-1l0-1 2-4c2-4 3-8 6-13 2-4 5-8 7-12 3-4-6 8 9-11 15-19 14 0 14 0 1 22 5 44 13 64l-61 16c2-10 4-21 7-31z m322 273c-30 36-114 37-156-4-11-37-7-82 11-131 24 8 50 9 74 8 21 1 68-9 68-9 0 0 28 84 3 136z m169-212l-59-26c0 0 20-73 22-79 1-7 10 0 10 0 21 24 29 55 29 87 0 6-1 12-2 18z m-490-14l-2 0m62-15c59 31 102 103 102 103-23 45-16 117-15 117-16-3-173-36-149-194 1-4 1-7 2-11l60-17m367 16c-58 31-96 89-96 89 28 75 10 131 9 132 16-3 173-37 149-195 0-4-1 0-1-4l-61-23"/>
<glyph glyph-name="drogueria-limpieza" unicode="&#87;" d="M144 414l46 1 2-24 71 0 29 71 63 0 0 40c0 0-115 0-130 0-15 0-24-9-24-9 0 0-45-45-59-57-22-20 2-22 2-22z m219 53l24 6 0 16-24 8z m-182-84l95 0 0-32-95 0z m135-233c0 72-40 90-44 93-4 4-6 8-6 16 0 8 10 14 10 22 0 15-10 17-10 24 0 12 9 12 9 22 0 13-9 17-9 17 0 0-66 0-81 0-61-99-60-199-60-199 0 0 0-85 0-109 0-24 12-26 12-26 0 0 157 0 169 0 12 0 10 16 10 16 0 0 0 26 0 124z m67 217c-36 37-37 88-37 88l-43 0c9-53 42-82 65-95 11-7 15-6 17-4 4 6-2 11-2 11z"/>
<glyph glyph-name="icono-sin-gluten-esquina" unicode="&#88;" d="M0 512l0-512 512 512z m150-296c-80 0-146 65-146 145 0 80 66 146 146 146 80 0 145-65 145-146 0-80-65-145-145-145z m97 223l-38-38-1 25 27 27c-22 21-52 34-85 34-69-1-125-57-125-126 0-32 13-62 33-85l21 23 1-25-9-10c22-17 49-27 79-27 69 0 125 56 125 124 0 30-10 57-28 78z m-100-187c0 0-27-1-42 14-15 15-15 41-14 42 0 0 26 1 42-14 15-16 14-42 14-42z m0 56c0 0-23-1-36 12-14 13-13 36-13 36 0 0 23 1 37-12 13-14 12-36 12-36z m0 55c0 0-20-1-33 11-12 12-11 33-11 33 0 0 21 1 33-11 12-12 11-33 11-33z m3 42c0 0-17 15-17 34 0 18 16 33 17 33 0 0 17-15 17-33 0-19-17-34-17-34z m14-9c12 12 33 11 33 11 0 0 1-21-12-33-12-12-33-11-33-11 0 1-1 21 12 33z m1-52c13 13 36 12 36 12 0 0 1-23-12-37-13-13-36-12-36-12-1 1-1 23 12 37z m30-78c-16-15-42-14-42-14-1 1-1 26 14 42 15 15 42 14 42 14 0 0 1-27-14-42z"/>
<glyph glyph-name="th-large" unicode="&#102;" d="M238 219l0-109c0-10-4-19-11-26-7-7-16-11-26-11l-146 0c-10 0-19 4-26 11-7 7-11 16-11 26l0 109c0 10 4 19 11 26 7 7 16 11 26 11l146 0c10 0 19-4 26-11 7-7 11-16 11-26z m0 220l0-110c0-10-4-18-11-26-7-7-16-10-26-10l-146 0c-10 0-19 3-26 10-7 8-11 16-11 26l0 110c0 10 4 18 11 26 7 7 16 10 26 10l146 0c10 0 19-3 26-10 7-8 11-16 11-26z m256-220l0-109c0-10-4-19-11-26-7-7-16-11-26-11l-146 0c-10 0-19 4-26 11-7 7-11 16-11 26l0 109c0 10 4 19 11 26 7 7 16 11 26 11l146 0c10 0 19-4 26-11 7-7 11-16 11-26z m0 220l0-110c0-10-4-18-11-26-7-7-16-10-26-10l-146 0c-10 0-19 3-26 10-7 8-11 16-11 26l0 110c0 10 4 18 11 26 7 7 16 10 26 10l146 0c10 0 19-3 26-10 7-8 11-16 11-26z"/>
<glyph glyph-name="th-list" unicode="&#103;" d="M146 155l0-54c0-8-2-15-8-20-5-5-12-8-19-8l-92 0c-7 0-14 3-19 8-5 5-8 12-8 20l0 54c0 8 3 15 8 20 5 5 12 8 19 8l92 0c7 0 14-3 19-8 6-5 8-12 8-20z m0 147l0-55c0-8-2-14-8-20-5-5-12-8-19-8l-92 0c-7 0-14 3-19 8-5 6-8 12-8 20l0 55c0 7 3 14 8 19 5 5 12 8 19 8l92 0c7 0 14-3 19-8 6-5 8-12 8-19z m366-147l0-54c0-8-3-15-8-20-5-5-12-8-19-8l-275 0c-7 0-14 3-19 8-5 5-8 12-8 20l0 54c0 8 3 15 8 20 5 5 12 8 19 8l275 0c7 0 14-3 19-8 5-5 8-12 8-20z m-366 293l0-55c0-7-2-14-8-19-5-6-12-8-19-8l-92 0c-7 0-14 2-19 8-5 5-8 12-8 19l0 55c0 8 3 14 8 19 5 6 12 8 19 8l92 0c7 0 14-2 19-8 6-5 8-11 8-19z m366-146l0-55c0-8-3-14-8-20-5-5-12-8-19-8l-275 0c-7 0-14 3-19 8-5 6-8 12-8 20l0 55c0 7 3 14 8 19 5 5 12 8 19 8l275 0c7 0 14-3 19-8 5-5 8-12 8-19z m0 146l0-55c0-7-3-14-8-19-5-6-12-8-19-8l-275 0c-7 0-14 2-19 8-5 5-8 12-8 19l0 55c0 8 3 14 8 19 5 6 12 8 19 8l275 0c7 0 14-2 19-8 5-5 8-11 8-19z"/>
<glyph glyph-name="twitter-square" unicode="&#104;" d="M402 338c-10-5-22-8-34-10 13 8 22 19 26 33-12-7-25-12-38-14-12 12-26 19-44 19-16 0-30-6-42-18-12-12-18-26-18-42 0-6 1-10 2-14-25 1-48 8-69 19-22 11-40 25-55 44-6-10-9-20-9-30 0-22 9-39 26-50-9 0-18 2-28 7l0-1c0-14 5-27 14-38 10-11 21-18 35-20-5-2-10-3-14-3-3 0-6 1-11 1 4-12 11-21 21-29 10-8 22-12 35-12-23-17-47-26-75-26-5 0-10 0-14 1 28-18 59-27 92-27 21 0 41 3 60 10 18 7 34 16 48 27 13 12 25 25 34 39 10 15 17 31 22 47 4 16 7 32 7 48 0 3-1 6-1 8 12 8 22 19 30 31z m73 55l0-274c0-23-8-42-24-58-16-16-35-24-58-24l-274 0c-23 0-42 8-58 24-16 16-24 35-24 58l0 274c0 23 8 42 24 58 16 16 35 24 58 24l274 0c23 0 42-8 58-24 16-16 24-35 24-58z"/>
<glyph glyph-name="chevron-circle-down" unicode="&#109;" d="M269 141l130 130c3 3 5 7 5 12 0 5-2 10-5 13l-30 29c-3 4-7 6-12 6-5 0-10-2-13-6l-88-87-88 87c-3 4-8 6-13 6-5 0-9-2-12-6l-30-29c-3-3-5-8-5-13 0-5 2-9 5-12l130-130c4-4 8-6 13-6 5 0 9 2 13 6z m206 115c0-40-9-77-29-110-20-34-46-60-80-80-33-20-70-29-110-29-40 0-77 9-110 29-34 20-60 46-80 80-20 33-29 70-29 110 0 40 9 77 29 110 20 34 46 60 80 80 33 20 70 29 110 29 40 0 77-9 110-29 34-20 60-46 80-80 20-33 29-70 29-110z"/>
<glyph glyph-name="chevron-circle-left" unicode="&#115;" d="M296 113l29 30c4 3 6 7 6 12 0 5-2 10-6 13l-87 88 87 88c4 3 6 8 6 13 0 5-2 9-6 12l-29 30c-3 3-8 5-13 5-5 0-9-2-12-5l-130-130c-4-4-6-8-6-13 0-5 2-9 6-13l130-130c3-3 7-5 12-5 5 0 10 2 13 5z m179 143c0-40-9-77-29-110-20-34-46-60-80-80-33-20-70-29-110-29-40 0-77 9-110 29-34 20-60 46-80 80-20 33-29 70-29 110 0 40 9 77 29 110 20 34 46 60 80 80 33 20 70 29 110 29 40 0 77-9 110-29 34-20 60-46 80-80 20-33 29-70 29-110z"/>
<glyph glyph-name="chevron-circle-right" unicode="&#116;" d="M241 113l130 130c4 4 6 8 6 13 0 5-2 9-6 13l-130 130c-3 3-7 5-12 5-5 0-10-2-13-5l-29-30c-4-3-6-7-6-12 0-5 2-10 6-13l87-88-87-88c-4-3-6-8-6-13 0-5 2-9 6-12l29-30c3-3 8-5 13-5 5 0 9 2 12 5z m234 143c0-40-9-77-29-110-20-34-46-60-80-80-33-20-70-29-110-29-40 0-77 9-110 29-34 20-60 46-80 80-20 33-29 70-29 110 0 40 9 77 29 110 20 34 46 60 80 80 33 20 70 29 110 29 40 0 77-9 110-29 34-20 60-46 80-80 20-33 29-70 29-110z"/>
<glyph glyph-name="chevron-circle-up" unicode="&#89;" d="M369 187l30 29c3 3 5 8 5 13 0 5-2 9-5 12l-130 130c-4 4-8 6-13 6-5 0-9-2-13-6l-130-130c-3-3-5-7-5-12 0-5 2-10 5-13l30-29c3-4 7-6 12-6 5 0 10 2 13 6l88 87 88-87c3-4 8-6 13-6 5 0 9 2 12 6z m106 69c0-40-9-77-29-110-20-34-46-60-80-80-33-20-70-29-110-29-40 0-77 9-110 29-34 20-60 46-80 80-20 33-29 70-29 110 0 40 9 77 29 110 20 34 46 60 80 80 33 20 70 29 110 29 40 0 77-9 110-29 34-20 60-46 80-80 20-33 29-70 29-110z"/>
<glyph glyph-name="check-circle" unicode="&#90;" d="M403 302c0 6-1 10-5 13l-26 26c-3 4-8 6-13 6-5 0-9-2-12-6l-117-116-65 64c-3 4-7 6-12 6-5 0-10-2-13-6l-26-25c-4-4-5-8-5-13 0-6 1-10 5-13l103-104c4-3 8-5 13-5 5 0 10 2 13 5l155 155c4 4 5 8 5 13z m72-46c0-40-9-77-29-110-20-34-46-60-80-80-33-20-70-29-110-29-40 0-77 9-110 29-34 20-60 46-80 80-20 33-29 70-29 110 0 40 9 77 29 110 20 34 46 60 80 80 33 20 70 29 110 29 40 0 77-9 110-29 34-20 60-46 80-80 20-33 29-70 29-110z"/>
<glyph glyph-name="check-circle-o" unicode="&#48;" d="M371 280l-120-121c-4-3-8-5-13-5-5 0-10 2-13 5l-84 84c-4 4-6 8-6 13 0 5 2 9 6 13l29 29c4 4 8 5 13 5 5 0 9-1 13-5l42-42 78 79c4 3 8 5 13 5 5 0 9-2 13-5l29-30c4-3 6-7 6-12 0-5-2-10-6-13z m40-24c0 28-7 54-20 78-14 24-33 43-57 57-24 13-50 20-78 20-28 0-54-7-78-20-24-14-43-33-57-57-13-24-20-50-20-78 0-28 7-54 20-78 14-24 33-43 57-57 24-13 50-20 78-20 28 0 54 7 78 20 24 14 43 33 57 57 13 24 20 50 20 78z m64 0c0-40-9-77-29-110-20-34-46-60-80-80-33-20-70-29-110-29-40 0-77 9-110 29-34 20-60 46-80 80-20 33-29 70-29 110 0 40 9 77 29 110 20 34 46 60 80 80 33 20 70 29 110 29 40 0 77-9 110-29 34-20 60-46 80-80 20-33 29-70 29-110z"/>
<glyph glyph-name="check" unicode="&#49;" d="M477 350c0-7-2-14-8-19l-206-207-39-39c-6-5-12-8-20-8-7 0-14 3-19 8l-142 142c-6 6-8 12-8 20 0 7 2 14 8 19l38 39c6 5 12 8 20 8 7 0 14-3 19-8l84-84 188 188c5 5 12 8 19 8 8 0 14-3 20-8l38-39c6-6 8-12 8-20z"/>
<glyph glyph-name="caret-down" unicode="&#50;" d="M402 311c0-5-2-9-5-13l-128-128c-4-4-8-5-13-5-5 0-9 1-13 5l-128 128c-3 4-5 8-5 13 0 5 2 9 5 13 4 3 8 5 13 5l256 0c5 0 9-2 13-5 3-4 5-8 5-13z"/>
<glyph glyph-name="caret-left" unicode="&#51;" d="M347 384l0-256c0-5-1-9-5-13-4-3-8-5-13-5-5 0-9 2-13 5l-128 128c-3 4-5 8-5 13 0 5 2 9 5 13l128 128c4 3 8 5 13 5 5 0 9-2 13-5 4-4 5-8 5-13z"/>
<glyph glyph-name="caret-right" unicode="&#52;" d="M329 256c0-5-2-9-5-13l-128-128c-4-3-8-5-13-5-5 0-9 2-13 5-4 4-5 8-5 13l0 256c0 5 1 9 5 13 4 3 8 5 13 5 5 0 9-2 13-5l128-128c3-4 5-8 5-13z"/>
<glyph glyph-name="caret-up" unicode="&#53;" d="M402 165c0-5-2-10-5-13-4-4-8-6-13-6l-256 0c-5 0-9 2-13 6-3 3-5 8-5 13 0 5 2 9 5 12l128 128c4 4 8 6 13 6 5 0 9-2 13-6l128-128c3-3 5-7 5-12z"/>
<glyph glyph-name="print" unicode="&#55;" d="M128 73l256 0 0 73-256 0z m0 183l256 0 0 110-46 0c-7 0-14 2-19 8-5 5-8 12-8 19l0 46-183 0z m329-18c0 5-2 9-5 13-4 3-8 5-13 5-5 0-9-2-13-5-4-4-5-8-5-13 0-5 1-10 5-13 4-4 8-6 13-6 5 0 9 2 13 6 3 3 5 8 5 13z m37 0l0-119c0-3-1-5-3-7-2-1-4-2-6-2l-64 0 0-46c0-8-3-14-8-19-6-6-12-8-20-8l-274 0c-8 0-14 2-20 8-5 5-8 11-8 19l0 46-64 0c-2 0-4 1-6 2-2 2-3 4-3 7l0 119c0 15 6 28 16 38 11 11 24 17 39 17l18 0 0 155c0 8 3 14 8 19 6 6 12 8 20 8l192 0c7 0 16-1 25-5 9-4 16-9 22-14l43-43c5-6 10-13 14-22 4-9 6-18 6-25l0-73 18 0c15 0 28-6 39-17 10-10 16-23 16-38z"/>
<glyph glyph-name="arrow-down" unicode="&#56;" d="M479 274c0-10-4-18-11-25l-186-187c-7-7-16-10-26-10-10 0-19 3-26 10l-186 187c-7 6-11 15-11 25 0 10 4 19 11 26l21 22c8 7 17 10 26 10 11 0 19-3 26-10l84-84 0 201c0 10 4 18 11 26 7 7 16 10 26 10l36 0c10 0 19-3 26-10 7-8 11-16 11-26l0-201 84 84c7 7 15 10 26 10 9 0 18-3 26-10l21-22c7-7 11-16 11-26z"/>
<glyph glyph-name="arrow-left" unicode="&#57;" d="M475 256l0-37c0-10-3-18-9-25-6-8-14-11-24-11l-201 0 84-84c7-7 10-16 10-26 0-10-3-19-10-26l-22-21c-7-7-15-11-26-11-9 0-18 4-26 11l-186 186c-7 7-10 16-10 26 0 10 3 18 10 26l186 185c8 8 16 11 26 11 10 0 19-3 26-11l22-21c7-7 10-16 10-26 0-10-3-18-10-26l-84-83 201 0c10 0 18-4 24-11 6-7 9-16 9-26z"/>
<glyph glyph-name="arrow-right" unicode="&#33;" d="M457 238c0-11-3-19-10-26l-186-186c-8-7-17-11-26-11-10 0-19 4-26 11l-22 21c-7 7-10 16-10 26 0 10 3 19 10 26l84 84-201 0c-10 0-18 3-24 11-6 7-9 15-9 25l0 37c0 10 3 19 9 26 6 7 14 11 24 11l201 0-84 84c-7 6-10 15-10 25 0 11 3 19 10 26l22 21c7 8 16 11 26 11 10 0 18-3 26-11l186-186c7-6 10-15 10-25z"/>
<glyph glyph-name="arrow-up" unicode="&#34;" d="M479 235c0-10-4-19-11-26l-21-22c-8-7-16-10-26-10-11 0-19 3-26 10l-84 84 0-201c0-10-4-18-11-24-7-6-16-9-26-9l-36 0c-10 0-19 3-26 9-7 6-11 14-11 24l0 201-84-84c-7-7-15-10-26-10-10 0-18 3-25 10l-22 22c-7 7-11 16-11 26 0 10 4 18 11 26l186 186c7 7 16 10 26 10 10 0 19-3 26-10l186-186c7-8 11-17 11-26z"/>
<glyph glyph-name="info-circle" unicode="&#35;" d="M329 119l0 46c0 2-1 4-2 6-2 2-4 3-7 3l-27 0 0 146c0 3-1 5-3 7-2 1-4 2-7 2l-91 0c-3 0-5-1-7-2-1-2-2-4-2-7l0-46c0-2 1-5 2-6 2-2 4-3 7-3l27 0 0-91-27 0c-3 0-5-1-7-3-1-2-2-4-2-6l0-46c0-3 1-5 2-7 2-1 4-2 7-2l128 0c3 0 5 1 7 2 1 2 2 4 2 7z m-36 256l0 46c0 2-1 4-3 6-2 2-4 3-7 3l-54 0c-3 0-5-1-7-3-2-2-3-4-3-6l0-46c0-3 1-5 3-7 2-1 4-2 7-2l54 0c3 0 5 1 7 2 2 2 3 4 3 7z m182-119c0-40-9-77-29-110-20-34-46-60-80-80-33-20-70-29-110-29-40 0-77 9-110 29-34 20-60 46-80 80-20 33-29 70-29 110 0 40 9 77 29 110 20 34 46 60 80 80 33 20 70 29 110 29 40 0 77-9 110-29 34-20 60-46 80-80 20-33 29-70 29-110z"/>
<glyph glyph-name="envelope-o" unicode="&#54;" d="M475 82l0 220c-6-7-12-13-19-19-51-39-92-72-122-97-10-8-18-14-24-19-6-4-14-9-24-14-11-4-21-7-30-7l0 0c-9 0-19 3-30 7-10 5-18 10-24 14-6 5-14 11-24 19-30 25-71 58-122 97-7 6-13 12-19 19l0-220c0-2 0-4 2-6 2-2 4-3 7-3l420 0c3 0 5 1 7 3 2 2 2 4 2 6z m0 301l0 7 0 3-1 4-1 2-3 3-4 0-420 0c-3 0-5-1-7-2-2-2-2-4-2-7 0-32 14-59 42-81 36-29 75-59 114-91 1-1 5-3 10-8 6-5 10-8 13-11 4-2 8-5 13-9 5-3 10-6 14-8 5-1 9-2 13-2l0 0c4 0 8 1 13 2 4 2 9 5 14 8 5 4 9 7 13 9 3 3 7 6 13 11 5 5 9 7 10 8 39 32 78 62 114 91 11 8 20 19 29 33 9 14 13 26 13 38z m37 10l0-311c0-12-4-23-13-32-9-9-20-13-33-13l-420 0c-13 0-24 4-33 13-9 9-13 20-13 32l0 311c0 13 4 23 13 32 9 9 20 14 33 14l420 0c13 0 24-5 33-14 9-9 13-19 13-32z"/>
<glyph glyph-name="times" unicode="&#36;" d="M426 134c0-7-3-14-8-19l-39-39c-5-5-12-8-20-8-7 0-14 3-19 8l-84 84-84-84c-5-5-12-8-19-8-8 0-15 3-20 8l-39 39c-5 5-8 12-8 19 0 8 3 14 8 20l84 84-84 84c-5 5-8 12-8 19 0 8 3 14 8 20l39 38c5 6 12 8 20 8 7 0 14-2 19-8l84-84 84 84c5 6 12 8 19 8 8 0 15-2 20-8l39-38c5-6 8-12 8-20 0-7-3-14-8-19l-84-84 84-84c5-6 8-12 8-20z"/>
<glyph glyph-name="lacteos-huevos" unicode="&#37;" d="M486 169c-31 31-87 25-126-14-38-38-44-94-13-125 31-31 86-25 125 14 38 38 44 94 14 125z m-143-139c-31 31-25 87 13 126 11 11 24 19 37 25-14 17-34 27-55 27-43 0-79-44-79-98 0-54 36-98 79-98 9 0 17 1 25 4-8 4-14 8-20 14z m-138 425c5 3 9 10 9 19 0 11-7 20-15 20l-111 0c-8 0-15-9-15-20 0-8 4-16 9-19-24-32-48-84-49-87l-1-3 0-296c0-30 25-55 55-55l113 0c31 0 55 25 55 55l0 296-1 3c-1 2-25 55-49 87z m-63-94c-39-29-94 0-94 0 0 0 29 63 53 92l85 0c24-29 53-92 53-92 0 0-58 29-97 0z"/>
<glyph glyph-name="mascotas" unicode="&#38;" d="M372 57l-3-1-24 0-1 1-1 0-1 1-1 0-1 1-1 0-1 1-2 0 0 1-1 0 0 1-1 0-1 2-1 0 0 1-1 1-1 2-1 1 0 3-1 2 0 2 0 30-3 67-13-62c-3-11-6-21 11-30 11-10-2-25-15-23-38-1-33 24-29 42l2 26 6 54-5 13c-42 11-70 19-102 36l-23-3c-11-2-9-14-10-22l-3-21-19-50-1-4c-1-3-1-16 4-23l10-21c8-12 10-40-11-31l0 0-16 6c-12 5-21 37-25 60l1 32c-10 3-15-55-10-67l10-30c3-10-9-13-17-13-18 0-27 19-30 35l-3 12c-5 18-3 46 7 63l4 10c8 20-2 34-4 44-8 32-15 64 8 95l2 2c-1 3-8 8-12 20-9 28-17 73-6 73l8 1c17 0 12-75 34-70l155-2 28 8c10 3 18 9 27 14l18 11c20-20 38-33 67-44 8-61-1-74-8-110l-3-15c-5-26-7-53-6-80l1-13c-1-12 6-13 16-17 7-3 12-16-1-22z m33 373l1-2 2-1 3-2 2-2 2-1 2-2 1-2 2-2 7-7 2-1 1-2 2-2 11-11c7-8 18-7 27-8l4-1c10-6 7-17 4-25l-3-5c-10-23-39-25-60-14l-9 4-3 0-6-4-12-11c-27 12-49 26-66 45l40 50 13 20 3 6 3 8c0 0 13 15 19 13 8-3 12-17 10-24l-2-8 0-9"/>
<glyph glyph-name="perfumeria-higiene" unicode="&#39;" d="M348 491c-36 0-86-20-102-48l0 2c0 0-5-7-13-7l0-6-12 0 0 2c0 8-7 15-16 15l-1 0c-8 0-15-7-15-15l0-25c-8-6-14-15-14-25 0-1 0-2 0-3-8-1-14-4-14-7 0-2 6-5 14-6-3-3-5-8-5-12l0-28c-50-16-85-61-85-115 0-38 18-71 46-93 0 0 45-37 45-43l0-6c0 0-3-3-14-9 0 0-1-1-1-1 0 0 0 0-1 0 0 0 0 0 0 0-7-4-11-9-11-15 0-14 25-25 55-25 30 0 55 11 55 25 0 5-3 9-8 13 0 1 0 1-2 2-12 7-16 10-16 10l-1 0 0 6 1 0c0 7 46 43 46 43l-1 0c27 22 45 56 45 94 0 53-35 99-83 114l0 27c0 5-3 9-6 12 9 2 14 4 14 7 0 2-5 5-14 7 0 0 0 1 0 2 0 11-5 20-13 25l0 8 12 0 0-6c8 0 13-7 13-7l0 2c16-28 66-48 102-48 44 0 79 30 79 67 0 37-35 67-79 67z"/>
<glyph glyph-name="icono-idioma" unicode="&#40;" d="M256 512c-141 0-256-115-256-256 0-141 115-256 256-256 141 0 256 115 256 256 0 141-115 256-256 256z m-223-272l80 0c1-27 4-54 11-80l-70 0c-12 25-19 52-21 80z m239 144l0 93c15-12 48-40 71-93l-71 0z m83-32c7-26 12-53 12-80l-95 0 0 80z m-122 119c3 2 5 4 7 6l0-93-71 0c7 17 17 33 28 49 10 14 22 27 36 38z m7-119l0-80-95 0c1 27 5 54 12 80l83 0z m-127-80l-80 0c2 28 9 55 21 80l70 0c-7-26-10-53-11-80z m32-32l95 0 0-80-83 0c-7 26-12 53-12 80z m95-112l0-93c-15 12-48 40-71 93z m39-87c-3-232-5-4-7-6l0 93 71 0c-7-17-17-33-28-49-10-14-22-27-36-38z m-7 119l0 80 95 0c-1-27-5-54-13-80l-82 0z m127 80l80 0c-2-28-9-55-21-80l-70 0c7 26 10 53 11 80z m0 32c0 27-4 54-11 80l70 0c12-25 19-52 21-80z m41 112l-63 0c-11 31-28 59-50 84 46-15 85-45 113-84z m-256 84c-21-25-38-53-49-84l-63 0c28 39 67 69 112 84z m-112-340l63 0c11-31 28-59 49-84-45 15-84 45-112 84z m256-84c21 25 38 53 49 84l63 0c-28-39-67-69-112-84z"/>
<glyph glyph-name="icono-mi-perfil" unicode="&#42;" d="M334 361c0 47-35 86-78 86-43 0-78-39-78-86 0-48 35-86 78-86 43 0 78 38 78 86z m-18-83c-14-20-36-32-60-32-24 0-46 12-60 32-47-28-79-87-79-155 0-3 0-6 0-9 0 0 49-57 139-57 90 0 139 57 139 57 0 3 1 6 1 9-1 68-33 127-80 155z m-60 234c-141 0-256-115-256-256 0-141 115-256 256-256 141 0 256 115 256 256 0 141-115 256-256 256z m0-485c-126 0-229 103-229 229 0 126 103 229 229 229 126 0 229-103 229-229 0-126-103-229-229-229z"/>
<glyph glyph-name="icono-perfil-datos-personales" unicode="&#43;" d="M512 28l-512 0 14 75c0 22 15 22 34 29l85 35c1 0 3 1 4 1l0 1 0 1 1 1c16 6 30 17 34 24 3 4 6 6 8 4 1 0 1 0 1-1 3 7 5 15 7 22 1 3 3 2 4-1l-2 8-1 13c-2 2-3 4-4 4-5 7-6 24-9 28-2 4-8 5-14 24-5 19-12 46-5 46 1 0 2 0 2 0 0 3-1 3-1 6-1 8-5 19-6 26-1 16 3 59 12 74 9 15 22 27 42 31 17 4 68 7 84 0 5-2 12-6 19-10 10-7 22-16 27-25 9-15 11-54 11-70-1-11-4-27-5-34 2 2 4 3 6 3 7-1 1-28-5-47-5-19-11-20-14-24-3-4-3-21-9-27-1-1-2-3-4-4l-1-17c0-9 2 0 3-4 1-2 5-13 7-20 1-2 0-3 3-2 2 0 4-1 6-5l1 0c0-1 1-1 1-2l0 0c5-7 18-17 33-23 2-1 3-2 5-2l85-34c19-7 34-8 34-30z"/>
<glyph glyph-name="icono-por-peso-esquina" unicode="&#44;" d="M367 483c-2 2-5 3-8 3-3 0-5-1-7-3-2-2-3-5-3-8 0-3 1-5 3-7 2-2 4-3 7-3 3 0 6 1 8 3 2 2 3 4 3 7 0 3-1 6-3 8z m26-135l102 0-51 93z m-119 93l-51-93 102 0z m-274 71l512-512 0 512z m237-194c-7 4-12 7-16 12-4 6-6 11-6 18 0 1 1 4 4 10 4 7 8 14 13 24 5 9 10 17 14 26 5 8 9 16 14 24 4 8 7 13 7 13 2 4 4 5 8 5 3 0 6-1 7-5 1 0 3-5 8-13 4-8 9-16 13-24 5-9 10-17 15-26 5-10 9-17 12-24 3-6 5-10 5-10 0-7-2-12-6-18-4-5-10-9-16-12-6-3-13-5-19-6-7-1-13-2-19-2-5 0-11 1-18 2-8 1-14 3-20 6z m216-51c0-1-1-2-2-3-1 0-1-1-3-1l-178 0c-1 0-2 0-3 1-1 1-1 2-1 3l0 9c0 1 0 2 1 3 1 1 2 1 3 1l81 0 0 171c-4 2-7 4-10 6-3 3-5 6-6 10l-65 0c-1 0-2 0-3 1-1 1-1 2-1 3l0 9c0 1 0 2 1 3 1 0 2 1 3 1l65 0c2 5 5 9 9 12 5 3 10 5 15 5 6 0 10-2 15-5 4-3 7-7 9-12l65 0c2 0 3-1 3-1 1-1 2-2 2-3l0-9c0-1-1-2-2-3 0-1-1-1-3-1l-65 0c-1-3-3-7-6-10-3-2-6-4-10-6l0-171 81 0c1 0 2 0 3-1 1-1 1-2 1-3l0-9z m44 63c-4-5-9-9-15-12-7-3-13-5-19-6-7-1-13-2-19-2-6 0-12 1-18 2-7 1-13 4-19 6-7 4-12 7-16 12-4 6-6 11-6 18 0 1 1 4 4 10 4 7 8 14 13 24 5 9 10 17 14 26 5 8 9 16 14 24 4 8 7 13 7 13 2 4 4 5 8 5 3 0 6-1 7-5 1 0 3-5 8-13 4-8 9-16 13-24 5-9 10-17 15-26 5-10 9-17 12-24 3-6 5-10 5-10-2-7-4-12-8-18z"/>
<glyph glyph-name="icono-imagen-no-disponible" unicode="&#45;" d="M314 376c-38 0-69-31-69-69 0-38 31-70 69-70 39 0 70 31 70 70 0 38-31 69-70 69z m114 85l-29 0-38 36-105 0-31-36-63 0c-3 12-10 20-20 20l-44 0c-9 0-17-8-20-20-32-3-56-30-56-62l0-181c0-34 27-62 62-62l344 0c35 0 62 28 62 62l0 181c0 34-27 62-62 62z m-350-227c0-6-5-11-12-11-6 0-11 5-11 11l0 124c0 7 5 12 11 12 7 0 12-5 12-12z m70 181c0-6-5-12-12-12l-32 0c-7 0-12 6-12 12l0 8c0 6 5 12 12 12l32 0c7 0 12-6 12-12z m166-207c-54 0-99 44-99 99 0 55 44 100 99 100 55 0 99-45 99-100 1-55-44-99-99-99z m-168-112l0 31c0 2 1 3 2 4 0 1 2 1 3 1 2 0 3 0 4-1 0-1 1-2 1-4l0-31c0-2 0-3-1-4-1-1-2-2-4-2-1 0-3 1-3 2-1 1-2 2-2 4z m16 0l5 31c0 2 1 3 2 4 1 1 2 1 4 1 1 0 2 0 3-1 1 0 3-1 3-3l7-21 6 20c1 2 2 3 3 4 1 1 2 1 3 1 2 0 3 0 4-1 1-1 2-2 2-4l6-31c0-4-1-6-4-6-2 0-4 1-4 2-1 0-1 2-2 4l-3 19-6-19c0-1 0-2-1-3 0-1-1-2-1-2-1 0-2-1-3-1-1 0-2 1-3 1-1 1-2 2-2 4l-7 20-3-20c0-1-1-3-2-4-1 0-2-1-3-1-2 0-3 1-3 2-1 1-1 2-1 4z m51-2c0 1 0 2 0 3l11 30c1 2 2 3 3 4 1 1 3 1 4 1 2 0 3 0 5-1 1-1 2-2 2-4l12-30c0-1 0-2 0-3 0-2-1-2-2-3-1-1-2-1-4-1-1 0-1 0-2 1-1 1-1 2-1 3l-2 4-15 0-1-3c-1-3-3-5-5-5-1 0-2 0-3 1-1 1-2 2-2 3z m13 13l10 0-5 16z m27 5c0 3 1 7 2 10 2 4 5 6 8 8 3 2 7 3 10 3 5 0 9-1 12-3 3-2 4-4 4-5 0-2 0-3-1-3-1-2-2-2-3-2-1 0-2 0-3 1l-3 2c-1 1-3 1-6 1-2 0-4 0-5-1-2-1-3-3-4-5-1-2-2-4-2-7 0-2 1-4 2-6 0-2 2-4 3-5 2-1 3-2 6-2 3 0 5 1 7 3 1 2 1 3 2 6l-6 0c-1 0-2 0-3 1-1 1-1 2-1 3 0 1 0 2 1 3 1 1 2 1 3 1l11 0c1 0 3 0 3-1 1-1 2-3 2-5 0-5-2-10-6-13-3-4-8-6-13-6-3 0-6 1-9 2-3 1-5 3-7 5-3 3-4 8-4 15z m46-15l0 29c0 2 1 3 2 4 1 1 2 2 4 2l13 0c1 0 3-1 4-1 1-1 1-2 1-3 0-2 0-3-1-3-1-1-3-1-4-1l-9 0 0-8 8 0c2 0 3-1 4-1 1-1 1-2 1-3 0-2 0-3-1-3-1-1-2-1-4-1l-8 0 0-8 9 0c1 0 3-1 4-1 1-1 1-2 1-3 0-2 0-3-1-4-1 0-3-1-4-1l-13 0c-2 0-3 1-4 2-1 1-2 2-2 4z m30-1l0 32c0 1 1 2 2 3 1 1 2 1 3 1 2 0 3 0 4-2l18-22 0 19c0 2 1 3 2 4 0 1 2 1 3 1 1 0 3 0 4-1 0-1 1-2 1-4l0-31c0-2 0-4-1-5-1-1-3-1-4-1-1 0-2 1-3 2l-19 23 0-20c0-1 0-3-1-4-1-1-2-1-3-1-2 0-3 0-4 1-1 2-2 3-2 5z m-286-62l0 32c0 2 1 3 2 4 1 1 2 1 3 1 2 0 3-1 4-2l18-23 0 20c0 1 1 3 2 4 0 1 2 1 3 1 1 0 3 0 4-1 0-1 1-3 1-4l0-32c0-2 0-3-1-4-2-1-3-1-4-1-1 0-2 0-3 1l-19 24 0-20c0-2 0-3-1-4-1-1-2-1-4-1-1 0-2 0-3 1-1 1-2 2-2 4z m42 16c0 3 1 6 2 9 1 3 3 5 5 7 4 4 8 5 14 5 3 0 6 0 8-1 2-1 5-3 6-5 2-2 4-4 5-7 1-2 1-5 1-8 0-3-1-6-2-9-1-3-2-6-5-8-2-2-4-3-6-4-2-1-5-1-7-1-3 0-6 0-8 1-3 1-5 3-7 5-4 4-6 10-6 16z m10 0c0-2 1-4 1-6 1-2 2-4 4-5 1-2 3-2 5-2 3 0 5 0 6 2 2 1 3 2 4 4 0 2 1 4 1 7 0 2-1 4-1 6-1 2-2 3-4 5-1 1-3 1-6 1-1 0-2 0-3-1-2 0-3-1-3-2-3-2-4-5-4-9z m54-15l0 30c0 1 0 3 1 4 1 1 3 1 4 1l9 0c6 0 10-1 13-4 3-1 5-4 6-7 1-3 2-6 2-10 0-3-1-7-2-10-2-3-4-6-7-7-3-2-7-3-10-3l-11 0c-1 0-3 0-4 1-1 2-1 3-1 5z m9 3l5 0c3 0 6 1 8 2 2 3 3 6 3 10 0 4-1 7-4 10-1 1-4 2-8 2l-4 0z m32-4l0 32c0 1 0 3 1 4 1 1 2 1 4 1 1 0 2 0 3-1 1-1 1-3 1-4l0-32c0-1 0-3-1-4-1-1-2-1-3-1-2 0-3 0-4 1-1 1-1 2-1 4z m15 1c0 2 0 3 2 4 0 1 1 1 2 1 1 0 2 0 3 0l3-2c2 0 3-1 5-1 1 0 2 1 4 1 1 1 1 2 1 3 0 2 0 3-1 3-1 1-2 1-2 1-1 0-3 1-5 2-2 0-4 1-6 2-1 1-2 2-3 4-1 1-2 3-2 5 0 3 1 5 2 7 2 2 3 4 6 5 2 1 4 1 7 1 2 0 3 0 5 0 2 0 3-1 4-2 1 0 2-2 2-3 0-1 0-3-1-4-1-1-2-1-3-1-1 0-1 0-1 0l-2 1c-1 1-3 1-4 1-1 0-3-1-3-1-1-1-2-2-2-3 0-1 2-2 4-3l3-1c4-1 7-2 9-4 2-2 3-5 3-8 0-4-1-8-3-10-2-1-3-3-5-3-2-1-5-1-7-1-4 0-8 0-11 2-1 0-2 1-2 2 0 1-2 1-2 2z m36-1l0 31c0 2 1 3 2 4 1 1 2 1 4 1l9 0c5 0 9-1 11-3 1-1 1-2 2-3 1-1 1-2 1-3 1-2 1-3 1-4 0-4-1-7-3-10-2-3-6-4-10-4l-7 0 0-9c0-1-1-3-2-4-1-1-2-1-3-1-2 0-3 0-4 1 0 1-1 2-1 4z m10 17l5 0c2 0 3 1 4 2 1 1 2 2 2 4 0 1-1 3-2 3-1 1-2 2-4 2l-5 0z m24-1c0 3 1 6 2 9 1 3 3 5 5 7 4 4 8 5 14 5 3 0 5 0 8-1 2-1 5-3 6-5 2-2 3-4 4-7 1-2 2-5 2-8 0-3-1-6-2-9-1-3-3-6-5-8-2-2-4-3-6-4-3-1-5-1-7-1-3 0-6 0-9 1-2 1-4 3-6 5-4 4-6 10-6 16z m10 0c0-2 1-4 1-6 1-2 2-4 4-5 2-2 3-2 6-2 2 0 4 0 5 2 2 1 3 2 4 4 0 2 1 4 1 7 0 2-1 4-1 6-1 2-2 3-4 5-1 1-3 1-5 1-2 0-3 0-4-1-2 0-3-1-3-2-3-2-4-5-4-9z m37-16l0 32c0 2 0 3 1 4 1 1 2 1 3 1 2 0 3-1 4-2l19-23 0 20c0 1 0 3 1 4 1 1 2 1 3 1 2 0 3 0 4-1 0-1 1-3 1-4l0-32c0-2 0-3-1-4-1-1-2-1-3-1-2 0-3 0-4 1l-19 24 0-20c0-2 0-3-1-4-1-1-2-1-3-1-2 0-3 0-4 1-1 1-1 2-1 4z m43 0l0 32c0 1 1 3 2 4 0 1 2 1 3 1 1 0 3 0 3-1 1-1 2-3 2-4l0-32c0-1-1-3-2-4 0-1-2-1-3-1-1 0-3 0-3 1-1 1-2 2-2 4z m17 1l0 30c0 2 0 3 1 4 1 1 3 1 4 1l10 0c4 0 6-1 9-2 1-1 2-2 2-3 1-2 1-3 1-4 0-2 0-4-1-5-1-2-2-3-4-4 3 0 4-1 5-3 3-2 4-4 4-7 0-2-1-4-2-7-1-2-3-3-4-4-3-1-5-2-7-2l-12 0c-2 0-3 1-4 2-1 1-2 2-2 4z m10 20l4 0c1 0 2 0 3 1 1 0 1 1 1 2 0 1 0 2-1 3-1 0-2 1-3 1l-5 0 0-7z m0-17l6 0c2 0 3 0 4 1 1 1 1 2 1 3 0 3-2 4-5 4l-6 0 0-8z m27-3l0 31c0 1 0 2 1 3 1 1 2 2 4 2 1 0 2-1 3-2 1-1 1-2 1-3l0-28 10 0c1 0 2-1 3-1 1-1 2-2 2-4 0-1-1-2-2-3-1 0-2-1-3-1l-13 0c-2 0-4 1-5 2 0 1-1 2-1 4z m27 0l0 30c0 2 0 3 1 4 2 1 3 1 5 1l13 0c1 0 2 0 3-1 1 0 2-1 2-3 0-1-1-2-2-3-1-1-2-1-3-1l-10 0 0-8 9 0c2 0 3 0 4-1 1 0 1-1 1-3 0-1 0-2-1-3-1-1-2-1-4-1l-9 0 0-8 10 0c1 0 2 0 3-1 1 0 2-2 2-3 0-1-1-2-2-3-1-1-2-1-3-1l-13 0c-2 0-3 0-5 1-1 1-1 2-1 4z"/>
<glyph glyph-name="icono-sin-gluten" unicode="&#46;" d="M256 507c-138 0-251-113-251-251 0-138 113-251 251-251 138 0 251 113 251 251 0 138-113 251-251 251z m0-481c-55 0-105 19-145 51l20 23-1 44-42-45c-39 41-62 96-62 157 0 127 103 230 230 230 61 0 116-23 157-62l-54-54 1-44 75 74c32-39 51-89 51-144 0-127-103-230-230-230z m0 427c-1 0-30-27-30-60 0-33 30-60 30-60 0 0 30 27 30 60 0 33-30 60-30 60z m-104-293c-1-1-2-47 25-74 27-27 74-25 74-25 0 0 2 47-25 74-28 27-74 25-74 25z m135-25c-28-27-26-73-25-74 0 0 47-2 74 25 27 28 24 74 24 74 0 0-46 2-73-25z m-122 112c-1-1-3-41 21-65 24-24 65-22 65-22 0 0 2 41-22 65-24 24-64 22-64 22z m161-65c24 24 22 65 22 65 0 0-41 2-65-22-24-24-23-64-22-65 0 0 41-2 65 22z m-153 155c-1-1-2-37 20-58 22-22 59-20 59-20 0 0 2 37-20 58-21 22-59 20-59 20z m146-58c22 21 20 58 20 58 0 0-37 2-59-20-22-21-21-57-20-58 0 0 38-2 59 20z"/>
<glyph glyph-name="icono-registro" unicode="&#47;" d="M475 420l-438 0c-18 0-33-14-33-32l0-264c0-18 15-33 33-33l439 0c18 0 32 15 32 33l0 264c0 18-14 32-33 32z m9-296c0-5-4-9-9-9l-438 0c-5 0-9 4-9 9l0 264c0 5 4 9 9 9l439 0c5 0 8-4 8-9l0-264z m-409 209l157 0 0-23-157 0z m0-66l157 0 0-23-157 0z m0-66l157 0 0-24-157 0z m334 113c0 25-18 44-40 44-22 0-40-19-40-44 0-24 18-44 40-44 22 0 40 20 40 44z m-9-52c-7-10-18-16-31-16-13 0-24 6-31 16-24-14-40-44-40-79 0-1 0-3 0-4 0 0 25-30 71-30 46 0 71 30 71 30 0 1 0 3 0 4 0 35-16 65-40 79z"/>
<glyph glyph-name="list-ul" unicode="&#58;" d="M110 110c0-16-6-28-16-39-11-11-24-16-39-16-15 0-28 5-39 16-11 11-16 23-16 39 0 15 5 28 16 39 11 10 24 16 39 16 15 0 28-6 39-16 10-11 16-24 16-39z m0 146c0-15-6-28-16-39-11-11-24-16-39-16-15 0-28 5-39 16-11 11-16 24-16 39 0 15 5 28 16 39 11 11 24 16 39 16 15 0 28-5 39-16 10-11 16-24 16-39z m402-119l0-55c0-2-1-4-3-6-2-2-4-3-6-3l-348 0c-2 0-4 1-6 3-2 2-3 4-3 6l0 55c0 3 1 5 3 7 2 1 4 2 6 2l348 0c2 0 4-1 6-2 2-2 3-4 3-7z m-402 265c0-15-6-28-16-39-11-10-24-16-39-16-15 0-28 6-39 16-11 11-16 24-16 39 0 16 5 28 16 39 11 11 24 16 39 16 15 0 28-5 39-16 10-11 16-23 16-39z m402-119l0-54c0-3-1-5-3-7-2-2-4-3-6-3l-348 0c-2 0-4 1-6 3-2 2-3 4-3 7l0 54c0 3 1 5 3 7 2 2 4 3 6 3l348 0c2 0 4-1 6-3 2-2 3-4 3-7z m0 147l0-55c0-3-1-5-3-7-2-1-4-2-6-2l-348 0c-2 0-4 1-6 2-2 2-3 4-3 7l0 55c0 2 1 4 3 6 2 2 4 3 6 3l348 0c2 0 4-1 6-3 2-2 3-4 3-6z"/>
<glyph glyph-name="star-1" unicode="&#59;" d="M494 327c0-4-3-9-8-14l-103-101 24-143c0-1 0-3 0-5 0-4-1-8-3-10-2-3-4-5-8-5-4 0-8 2-12 4l-128 67-128-67c-4-2-8-4-12-4-4 0-7 2-9 5-2 2-3 6-3 10 0 1 0 3 1 5l24 143-104 101c-4 6-7 10-7 14 0 7 6 12 16 13l144 21 64 130c4 8 8 12 14 12 6 0 10-4 14-12l64-130 144-21c10-1 16-6 16-13z"/>
<glyph glyph-name="star-o" unicode="&#62;" d="M343 225l88 85-121 18-54 109-54-109-121-18 88-85-21-120 108 57 108-57z m151 102c0-4-3-9-8-14l-103-101 24-143c0-1 0-3 0-5 0-10-3-15-11-15-4 0-8 2-12 4l-128 67-128-67c-4-2-8-4-12-4-4 0-7 2-9 5-2 2-3 6-3 10 0 1 0 3 1 5l24 143-104 101c-4 6-7 10-7 14 0 7 6 12 16 13l144 21 64 130c4 8 8 12 14 12 6 0 10-4 14-12l64-130 144-21c10-1 16-6 16-13z"/>
<glyph glyph-name="shopping-cart" unicode="&#63;" d="M201 73c0-10-3-18-11-26-7-7-16-10-25-10-10 0-19 3-26 10-7 8-11 16-11 26 0 10 4 19 11 26 7 7 16 11 26 11 9 0 18-4 25-11 8-7 11-16 11-26z m256 0c0-10-3-18-11-26-7-7-16-10-25-10-10 0-19 3-26 10-7 8-11 16-11 26 0 10 4 19 11 26 7 7 16 11 26 11 9 0 18-4 25-11 8-7 11-16 11-26z m37 311l0-146c0-5-2-9-5-12-3-4-7-6-12-7l-298-34c3-12 4-19 4-20 0-3-2-10-7-19l263 0c5 0 9-2 13-5 3-4 5-8 5-13 0-5-2-9-5-13-4-3-8-5-13-5l-293 0c-5 0-9 2-13 5-3 4-5 8-5 13 0 2 1 5 2 9 2 4 3 7 5 10 1 3 3 7 6 12 3 4 4 7 4 8l-50 235-58 0c-5 0-10 2-13 6-4 3-6 8-6 13 0 5 2 9 6 12 3 4 8 6 13 6l73 0c3 0 5-1 8-2 2-1 4-3 5-4 2-2 3-4 4-7 1-3 2-6 2-8 1-2 1-5 2-8 1-4 1-6 1-8l343 0c5 0 10-2 13-5 4-4 6-8 6-13z"/>
<glyph glyph-name="search" unicode="&#64;" d="M347 274c0 36-12 66-37 91-25 25-55 37-91 37-35 0-65-12-90-37-25-25-38-55-38-91 0-35 13-65 38-90 25-25 55-38 90-38 36 0 66 13 91 38 25 25 37 55 37 90z m147-237c0-10-4-19-11-26-7-7-16-11-26-11-10 0-19 4-26 11l-98 98c-34-24-72-36-114-36-27 0-53 5-78 16-25 11-46 25-64 43-18 18-32 39-43 64-10 25-16 51-16 78 0 28 6 54 16 78 11 25 25 47 43 65 18 18 39 32 64 43 25 10 51 15 78 15 28 0 54-5 79-15 24-11 46-25 64-43 18-18 32-40 43-65 10-24 16-50 16-78 0-42-12-80-36-114l98-98c7-7 11-15 11-25z"/>
<glyph glyph-name="plus-2" unicode="&#91;" d="M457 302l0-55c0-8-3-14-8-20-5-5-12-8-19-8l-119 0 0-118c0-8-3-15-8-20-5-5-12-8-20-8l-54 0c-8 0-15 3-20 8-5 5-8 12-8 20l0 118-119 0c-7 0-14 3-19 8-5 6-8 12-8 20l0 55c0 7 3 14 8 19 5 5 12 8 19 8l119 0 0 119c0 8 3 14 8 19 5 6 12 8 20 8l54 0c8 0 15-2 20-8 5-5 8-11 8-19l0-119 119 0c7 0 14-3 19-8 5-5 8-12 8-19z"/>
<glyph glyph-name="minus-2" unicode="&#93;" d="M457 302l0-55c0-8-3-14-8-20-5-5-12-8-19-8l-348 0c-7 0-14 3-19 8-5 6-8 12-8 20l0 55c0 7 3 14 8 19 5 5 12 8 19 8l348 0c7 0 14-3 19-8 5-5 8-12 8-19z"/>
<glyph glyph-name="map-marker" unicode="&#94;" d="M329 329c0 20-7 38-21 52-15 14-32 21-52 21-20 0-37-7-52-21-14-14-21-32-21-52 0-20 7-37 21-52 15-14 32-21 52-21 20 0 37 7 52 21 14 15 21 32 21 52z m73 0c0-21-3-38-9-51l-104-221c-3-6-8-11-14-15-6-4-12-5-19-5-7 0-13 1-19 5-6 4-11 9-14 15l-104 221c-6 13-9 30-9 51 0 41 14 75 43 104 28 28 63 42 103 42 40 0 75-14 103-42 29-29 43-63 43-104z"/>
<glyph glyph-name="exclamation-circle" unicode="&#95;" d="M256 475c40 0 77-9 110-29 34-20 60-46 80-80 20-33 29-70 29-110 0-40-9-77-29-110-20-34-46-60-80-80-33-20-70-29-110-29-40 0-77 9-110 29-34 20-60 46-80 80-20 33-29 70-29 110 0 40 9 77 29 110 20 34 46 60 80 80 33 20 70 29 110 29z m37-356l0 54c0 3-1 5-3 7-2 2-4 3-6 3l-55 0c-3 0-5-1-7-3-2-2-3-4-3-7l0-54c0-2 1-5 3-6 2-2 4-3 7-3l55 0c2 0 4 1 6 2 2 2 3 4 3 7z m-1 98l5 178c0 2-1 4-3 5-2 2-4 2-7 2l-62 0c-3 0-5 0-7-2-2-1-3-3-3-5l5-178c0-1 1-3 3-5 1-1 4-2 6-2l53 0c3 0 5 1 7 2 2 2 3 4 3 5z"/>
<glyph glyph-name="exclamation-triangle" unicode="&#96;" d="M293 119l0 54c0 3-1 5-3 7-2 2-4 3-7 3l-54 0c-3 0-5-1-7-3-2-2-3-4-3-7l0-54c0-3 1-5 3-7 2-1 4-2 7-2l54 0c3 0 5 1 7 2 2 2 3 4 3 7z m-1 107l5 131c0 2-1 4-3 6-2 2-4 3-7 3l-62 0c-3 0-5-1-7-3-2-2-3-4-3-6l5-131c0-2 1-3 3-5 1-1 4-2 6-2l53 0c3 0 5 1 7 2 2 2 3 3 3 5z m-4 267l219-402c7-12 7-24 0-36-3-6-8-10-13-14-6-3-12-4-19-4l-438 0c-7 0-13 1-19 4-5 4-10 8-13 14-7 12-7 24 0 36l219 402c3 6 8 10 13 14 6 3 12 5 19 5 7 0 13-2 19-5 5-4 10-8 13-14z"/>
<glyph glyph-name="clock-o" unicode="&#123;" d="M293 357l0-128c0-3-1-5-3-7-2-2-4-3-7-3l-91 0c-3 0-5 1-7 3-1 2-2 4-2 7l0 18c0 3 1 5 2 6 2 2 4 3 7 3l64 0 0 101c0 2 1 4 3 6 1 2 3 3 6 3l18 0c3 0 5-1 7-3 2-2 3-4 3-6z m118-101c0 28-7 54-20 78-14 24-33 43-57 57-24 13-50 20-78 20-28 0-54-7-78-20-24-14-43-33-57-57-13-24-20-50-20-78 0-28 7-54 20-78 14-24 33-43 57-57 24-13 50-20 78-20 28 0 54 7 78 20 24 14 43 33 57 57 13 24 20 50 20 78z m64 0c0-40-9-77-29-110-20-34-46-60-80-80-33-20-70-29-110-29-40 0-77 9-110 29-34 20-60 46-80 80-20 33-29 70-29 110 0 40 9 77 29 110 20 34 46 60 80 80 33 20 70 29 110 29 40 0 77-9 110-29 34-20 60-46 80-80 20-33 29-70 29-110z"/>
<glyph glyph-name="icono-menu-mobile" unicode="&#41;" d="M512 441l0-43c0-5-2-11-6-15-5-4-10-6-16-6l-468 0c-6 0-11 2-16 6-4 5-6 10-6 15l0 43c0 6 2 11 6 15 5 4 10 7 16 7l469 0c6 0 11-3 15-7 4-4 6-9 6-15z m0-171l0-42c0-6-2-11-6-15-5-4-10-7-16-7l-468 0c-6 0-11 2-16 7-4 4-6 9-6 15l0 42c0 6 2 11 6 15 5 4 10 7 16 7l469 0c6 0 11-2 15-7 4-4 6-9 6-15z m0-170l0-43c0-6-2-11-6-15-5-4-10-7-16-7l-468 0c-6 0-11 3-16 7-4 4-6 9-6 15l0 43c0 5 2 11 6 15 5 4 10 6 16 6l469 0c6 0 11-2 15-6 4-4 6-10 6-15z"/>
<glyph glyph-name="icono-carrito" unicode="&#124;" d="M315 94c0-24-20-45-45-45-25 0-45 21-45 45 0 25 20 45 45 45 25 0 45-20 45-45z m149 0c0-24-20-45-44-45-25 0-45 21-45 45 0 25 20 45 45 45 24 0 44-20 44-45z m-344 334l-116 0 0-38 101 0 116-230 248 0 0 37-231 0z m52-54l82-158 215 0 39 158z"/>
<glyph glyph-name="icono-info-circulo" unicode="&#125;" d="M255 332c-12 0-21-4-27-11-7-8-10-18-10-30l0-183c0-11 3-22 10-29 7-9 16-13 27-13 12 0 21 4 28 12 6 8 10 18 10 30l0 183c0 12-4 22-10 30-7 7-16 11-28 11z m21 107c-6 4-13 6-20 6-12 0-23-4-31-13-8-8-12-19-12-31 0-12 4-22 12-31 9-8 19-13 31-13 11 0 20 5 28 13 8 9 12 19 12 31 0 8-2 15-6 22-3 7-8 12-14 16z m-20 67c-138 0-250-112-250-250 0-138 112-250 250-250 138 0 250 112 250 250 0 138-112 250-250 250z m0-473c-123 0-223 100-223 223 0 123 100 223 223 223 123 0 223-100 223-223 0-123-100-223-223-223z"/>
<glyph glyph-name="credit-card" unicode="&#126;" d="M485 475c12 0 23-4 32-13 9-9 13-20 13-32l0-348c0-12-4-23-13-32-9-9-20-13-32-13l-458 0c-12 0-23 4-32 13-9 9-13 20-13 32l0 348c0 12 4 23 13 32 9 9 20 13 32 13z m-458-36c-2 0-4-1-6-3-2-2-3-4-3-6l0-64 476 0 0 64c0 2-1 4-3 6-2 2-4 3-6 3z m458-366c2 0 4 1 6 3 2 2 3 4 3 6l0 174-476 0 0-174c0-2 1-4 3-6 2-2 4-3 6-3z m-430 37l0 36 73 0 0-36z m110 0l0 36 109 0 0-36z"/>
<glyph glyph-name="map-signs" unicode="&#92;" d="M499 427c1-2 2-4 2-6 0-3-1-5-2-7l-41-40c-5-6-12-8-19-8l-384 0c-5 0-9 2-13 5-4 4-5 8-5 13l0 73c0 5 1 9 5 13 4 4 8 5 13 5l164 0 0 19c0 5 2 9 6 13 3 3 8 5 13 5l36 0c5 0 10-2 13-5 4-4 6-8 6-13l0-19 146 0c7 0 14-2 19-8z m-280-262l74 0 0-147c0-5-2-9-6-13-3-3-8-5-13-5l-36 0c-5 0-10 2-13 5-4 4-6 8-6 13z m238 128c5 0 9-2 13-6 4-3 5-8 5-13l0-73c0-5-1-9-5-13-4-3-8-5-13-5l-384 0c-7 0-14 3-19 8l-41 40c-1 2-2 4-2 7 0 2 1 4 2 6l41 41c5 5 12 8 19 8l146 0 0 54 74 0 0-54z"/>
<glyph glyph-name="icono-club-dia" unicode="&#57344;" d="M74 292l0-113 112 0c22 0 40 17 40 39l0 115-112 0c-23 0-40-19-40-41z m111-93c-12 0-21 10-21 21 0 11 9 21 21 21 11 0 20-10 20-21 0-11-9-21-20-21z m20 112l-73-110c0 0-37 0-37 0l73 110z m-69-19c0-12-9-21-21-21-11 0-20 9-20 21 0 11 9 20 20 20 12 0 21-9 21-20z m339 116l-438 0c-21 0-37-16-37-37l0-231c0-20 16-37 37-37l438 0c21 0 37 17 37 37l0 231c0 21-16 37-37 37z m-230-190c0-32-27-57-59-57l-108 0c-13 0-23 10-23 22l0 109c0 33 27 59 59 59l108 0c13 0 23-10 23-24z"/>
<glyph glyph-name="logotipo-dia-tantoporciento" unicode="&#57345;" d="M349 216c-33 0-56-26-56-55 0-30 23-56 56-56 29 0 52 26 52 56 0 29-23 55-52 55z m-141-105l193 290-97 0-193-290c0 0 97 0 97 0z m237 396l-284 0c-86 0-156-68-156-156l0-287c0-33 26-59 62-59l284 0c85 0 156 68 156 153l0 287c0 36-26 62-62 62z m12-349c0-59-47-106-105-106l-297 0 0 299c0 59 47 109 105 109l297 0 0-302z m-346 193c0-32 23-55 53-55 32 0 55 23 55 55 0 30-23 53-55 53-30 0-53-23-53-53z"/>
<glyph glyph-name="logotipo-dia" unicode="&#113;" d="M461 243c-11 0-18-8-18-18 0-9 7-18 18-18 9 0 17 9 17 18 0 10-8 18-17 18z m-46-34l63 94-31 0-63-94c0 0 31 0 31 0z m81 15c0-19-15-34-34-34l-96 0 0 97c0 19 15 35 34 35l96 0 0-98z m-4 113l-92 0c-27 0-50-22-50-50l0-93c0-11 8-19 20-19l92 0c27 0 50 22 50 49l0 93c0 12-9 20-20 20z m-108-50c0-11 8-18 17-18 10 0 18 7 18 18 0 9-8 17-18 17-9 0-17-8-17-17z m-254-96l33 0 0 109-33-14z m126 45c-3-10-12-17-23-17-13 0-23 11-23 24 0 13 10 24 23 24 14 0 24-11 24-24 0-3 0-5-1-7z m-23 62c-30 0-54-24-54-55 0-32 26-54 53-54 10 0 22 4 32 13l24-11 0 52c0 31-24 55-55 55z m-184-76l-18 0 0 67 18 0c18-1 33-15 33-33 0-18-15-33-33-34z m-1 98l-48 0 0-129 48 0c36 0 65 29 65 65 0 35-29 64-65 64"/>
<glyph glyph-name="search-plus" unicode="&#114;" d="M311 283l0-18c0-2-1-4-3-6-2-2-4-3-6-3l-64 0 0-64c0-2-1-5-3-6-2-2-4-3-6-3l-19 0c-2 0-4 1-6 3-2 1-3 4-3 6l0 64-64 0c-2 0-4 1-6 3-2 2-3 4-3 6l0 18c0 3 1 5 3 7 2 2 4 3 6 3l64 0 0 64c0 2 1 4 3 6 2 2 4 3 6 3l19 0c2 0 4-1 6-3 2-2 3-4 3-6l0-64 64 0c2 0 4-1 6-3 2-2 3-4 3-7z m36-9c0 36-12 66-37 91-25 25-55 37-91 37-35 0-65-12-90-37-25-25-38-55-38-91 0-35 13-65 38-90 25-25 55-38 90-38 36 0 66 13 91 38 25 25 37 55 37 90z m147-237c0-11-4-19-11-26-7-7-16-11-26-11-10 0-19 4-26 11l-98 98c-34-24-72-36-114-36-27 0-53 5-78 16-25 11-46 25-64 43-18 18-32 39-43 64-10 25-16 51-16 78 0 28 6 54 16 78 11 25 25 47 43 65 18 18 39 32 64 43 25 10 51 15 78 15 28 0 54-5 79-15 24-11 46-25 64-43 18-18 32-40 43-65 10-24 16-50 16-78 0-42-12-80-36-114l98-98c7-7 11-15 11-25z"/>
<glyph glyph-name="tablet" unicode="&#117;" d="M274 110c0 5-2 9-5 13-4 3-8 5-13 5-5 0-9-2-13-5-3-4-5-8-5-13 0-5 2-10 5-13 4-4 8-6 13-6 5 0 9 2 13 6 3 3 5 8 5 13z m110 45l0 275c0 2-1 4-3 6-2 2-4 3-6 3l-238 0c-2 0-4-1-6-3-2-2-3-4-3-6l0-275c0-2 1-4 3-6 2-2 4-3 6-3l238 0c2 0 4 1 6 3 2 2 3 4 3 6z m37 275l0-311c0-13-5-23-14-32-9-9-20-14-32-14l-238 0c-12 0-23 5-32 14-9 9-14 19-14 32l0 311c0 12 5 23 14 32 9 9 20 13 32 13l238 0c12 0 23-4 32-13 9-9 14-20 14-32z"/>
<glyph glyph-name="television" unicode="&#118;" d="M475 155l0 275c0 2 0 4-2 6-2 2-4 3-7 3l-457 0c-2 0-4-1-6-3-2-2-3-4-3-6l0-275c0-2 1-4 3-6 2-2 4-3 6-3l457 0c3 0 5 1 7 3 2 2 2 4 2 6z m37 275l0-275c0-12-4-23-13-32-9-9-20-13-33-13l-210 0 0-37 101 0c2 0 4-1 6-2 2-2 3-4 3-7l0-18c0-3-1-5-3-7-2-2-4-2-6-2l-238 0c-3 0-5 0-7 2-1 2-2 4-2 7l0 18c0 3 1 5 2 7 2 1 4 2 7 2l100 0 0 37-210 0c-12 0-23 4-32 13-9 9-14 20-14 32l0 275c0 12 5 23 14 32 9 9 20 13 32 13l457 0c13 0 24-4 33-13 9-9 13-20 13-32z"/>
<glyph glyph-name="mobile" unicode="&#121;" d="M279 110c0 6-2 11-7 16-4 4-10 7-16 7-6 0-12-3-16-7-5-5-7-10-7-16 0-7 2-12 7-16 4-5 10-7 16-7 6 0 12 2 16 7 5 4 7 9 7 16z m59 45l0 202c0 2-1 4-2 6-2 2-4 3-7 3l-146 0c-3 0-5-1-7-3-1-2-2-4-2-6l0-202c0-2 1-4 2-6 2-2 4-3 7-3l146 0c3 0 5 1 7 3 1 2 2 4 2 6z m-55 243c0 3-1 4-4 4l-46 0c-3 0-4-1-4-4 0-3 1-5 4-5l46 0c3 0 4 2 4 5z m83 4l0-292c0-10-4-19-11-26-7-7-16-11-26-11l-146 0c-10 0-19 4-26 11-7 7-11 16-11 26l0 292c0 10 4 19 11 26 7 7 16 11 26 11l146 0c10 0 19-4 26-11 7-7 11-16 11-26z"/>
<glyph glyph-name="icono-carrito-con-logo" unicode="&#122;" d="M216 48c0-17-14-31-30-31-17 0-31 14-31 31 0 17 14 30 31 30 16 0 30-13 30-30z m152 0c0-17-14-31-30-31-17 0-31 14-31 31 0 17 14 30 31 30 16 0 30-13 30-30z m93 370l-308 0c-3 15-33 39-59 53-22 12-67 31-77 17-4-7-1-21 6-27 7-5 15 2 31 2 15 0 26-6 37-12 18-9 34-16 41-33l-7 0c-13 0-20-12-20-26l14-287c0-14 11-26 24-26l235 0c13 0 67 0 79 115l24 198c0 14-7 26-20 26z m-36-223c0-46-38-82-84-82l-154 0c-19 0-34 14-34 31l0 156c0 48 38 85 85 85l154 0c19 0 33-15 33-34z m-245 105l0-162 161 0c32 0 57 26 57 58l0 163-160 0c-32 0-58-27-58-59z m159-133c-17 0-30 14-30 30 0 16 13 31 30 31 16 0 29-15 29-31 0-16-13-30-29-30z m29 160l-105-157c0 0-53 0-53 0l105 157z m-99-27c0-17-12-30-30-30-16 0-29 13-29 30 0 16 13 29 29 29 18 0 30-13 30-29z"/>
<glyph glyph-name="icono-ultimas-compras" unicode="&#65;" d="M256 239c-7 0-14 3-20 8-14 12-16 33-5 48l161 205c11 14 31 16 45 4 13-12 15-33 4-48l-160-205c-7-8-16-12-25-12z m256 34l0-34c0-19-14-34-32-34l-32-205-384 0-32 205c-18 0-32 15-32 34l0 34c0 19 14 34 32 34l188 0-1-1c-17-22-14-54 6-72 9-8 20-12 31-12 14 0 28 7 37 18l52 67 135 0c18 0 32-15 32-34z m-368-119c0 9-7 17-16 17-9 0-16-8-16-17l0-103c0-9 7-17 16-17 9 0 16 8 16 17z m64 0c0 9-7 17-16 17-9 0-16-8-16-17l0-103c0-9 7-17 16-17 9 0 16 8 16 17z m64 0c0 9-7 17-16 17-9 0-16-8-16-17l0-103c0-9 7-17 16-17 9 0 16 8 16 17z m64 0c0 9-7 17-16 17-9 0-16-8-16-17l0-103c0-9 7-17 16-17 9 0 16 8 16 17z m64 0c0 9-7 17-16 17-9 0-16-8-16-17l0-103c0-9 7-17 16-17 9 0 16 8 16 17z"/>
<glyph glyph-name="icono-mis-cupones" unicode="&#66;" d="M485 478l0-451-451 0 34-27 444 0 0 444z m-362-91c-11 0-18-6-21-17-3-12-4-26-4-41 0-15 1-28 4-39 3-11 10-16 21-16 11 0 18 6 21 17 3 11 4 24 4 39 0 16-1 29-4 40-3 11-10 17-21 17z m-123 125l0-454 454 0 0 454z m90-271c-9 6-17 15-23 25-9 17-14 38-14 63 0 26 5 47 14 65 6 10 14 18 23 24 10 7 21 10 32 10 16 0 30-5 40-15 11-10 19-22 24-37 5-15 8-31 8-47 0-16-3-31-8-46-5-15-13-28-24-38-10-9-24-14-40-14-11 0-22 3-32 10z m85-131c-6 0-12 2-16 5-5 4-7 8-8 14 0 4 2 11 4 17l106 267c4 9 10 14 18 15 7 0 13-2 17-5 4-4 7-8 7-13 0-4 0-9-2-14l-107-270c-5-9-10-15-19-16z m219 59c-5-15-13-28-23-38-11-9-25-14-41-14-11 0-21 3-31 9-10 7-18 15-23 25-10 18-15 39-15 64 0 26 5 47 15 65 6 10 13 18 23 24 10 7 20 10 31 10 16 0 30-5 41-15 11-10 18-22 23-37 5-15 8-31 8-47 0-16-3-32-8-46z m-63 103c-10 0-18-5-20-17-3-12-5-25-5-41 0-37 9-55 25-55 11 0 19 6 21 17 3 11 5 24 5 39 0 16-2 29-5 40-2 12-10 17-21 17z"/>
<glyph glyph-name="google-plus" unicode="&#67;" d="M228 285c0-7 3-14 9-21 7-6 14-13 23-19 8-6 17-13 25-21 9-8 16-18 22-30 7-12 10-25 10-40 0-17-5-34-14-50-14-23-34-40-60-51-27-11-55-16-86-16-25 0-48 4-70 11-22 8-38 21-49 40-7 11-11 24-11 37 0 16 5 30 13 43 9 13 20 24 34 33 25 15 63 25 115 28-6 8-10 15-13 22-3 6-5 13-5 20 0 7 2 15 6 25-8-1-15-1-19-1-28 0-52 9-71 27-20 19-29 42-29 70 0 16 3 31 10 45 7 15 16 28 28 38 15 12 32 22 52 28 21 6 41 9 63 9l119 0-39-25-38 0c14-12 25-25 32-38 7-13 11-29 11-46 0-14-2-26-7-37-5-11-10-20-17-26-6-7-13-13-20-19-6-6-12-11-17-18-4-6-7-12-7-18z m-41 27c7 0 14 2 22 5 7 3 14 7 19 12 10 11 15 26 15 46 0 11-2 23-5 35-3 13-8 25-14 37-6 12-14 22-24 30-10 8-21 12-33 12-8 0-16-2-24-6-8-4-14-9-19-15-9-11-13-26-13-46 0-8 1-18 3-28 2-9 5-19 9-29 4-10 9-19 15-26 5-8 13-15 21-20 8-5 18-7 28-7z m0-249c11 0 22 1 32 3 10 3 20 6 28 11 9 5 16 12 21 21 5 9 8 20 8 31 0 5-1 10-2 14-1 5-3 9-4 12-2 4-4 8-8 12-4 5-6 8-8 10-2 2-6 6-11 10-6 5-9 7-11 8-1 2-5 4-12 9-6 5-9 7-10 7-3 1-8 1-14 1-10 0-20-1-30-2-10-1-20-4-30-7-11-4-20-8-28-13-8-6-15-13-20-22-5-8-7-18-7-30 0-13 3-25 10-35 6-10 15-18 26-24 10-5 22-10 34-12 12-3 24-4 36-4z m232 250l60 0 0-31-60 0 0-63-30 0 0 63-61 0 0 31 61 0 0 62 30 0z"/>
<glyph glyph-name="twitter" unicode="&#68;" d="M481 395c-13-18-28-34-46-47 0-3 0-7 0-12 0-25-3-50-11-74-7-25-18-49-33-71-14-23-32-43-52-61-21-17-45-31-74-41-29-11-60-16-92-16-52 0-99 14-142 42 7-1 14-2 22-2 43 0 81 14 115 40-20 0-38 6-54 18-16 12-27 27-33 46 7-1 13-2 18-2 8 0 16 1 24 4-21 4-39 15-53 31-14 17-21 37-21 59l0 1c13-7 27-11 42-11-13 8-23 19-30 32-8 14-11 29-11 44 0 17 4 33 12 47 23-28 51-51 84-68 33-17 69-27 107-29-2 8-3 15-3 22 0 25 9 47 27 65 18 18 40 27 66 27 26 0 49-10 67-29 21 4 40 11 59 22-7-22-21-39-41-51 18 2 35 7 53 14z"/>
<glyph glyph-name="facebook" unicode="&#69;" d="M384 509l0-76-45 0c-17 0-28-3-33-10-6-7-9-17-9-31l0-54 84 0-11-85-73 0 0-216-87 0 0 216-73 0 0 85 73 0 0 62c0 36 10 63 29 83 20 19 47 29 80 29 28 0 49-1 65-3z"/>
<glyph glyph-name="facebook-official" unicode="&#70;" d="M451 475c7 0 13-2 17-7 5-4 7-10 7-17l0-390c0-7-2-13-7-17-4-5-10-7-17-7l-112 0 0 170 57 0 9 66-66 0 0 42c0 11 3 19 7 24 5 5 13 8 26 8l35 0 0 60c-12 1-29 2-51 2-26 0-46-7-62-23-15-15-23-36-23-64l0-49-57 0 0-66 57 0 0-170-210 0c-7 0-13 2-17 7-5 4-7 10-7 17l0 390c0 7 2 13 7 17 4 5 10 7 17 7z"/>
<glyph glyph-name="facebook-square" unicode="&#101;" d="M393 475c23 0 42-8 58-24 16-16 24-35 24-58l0-274c0-23-8-42-24-58-16-16-35-24-58-24l-54 0 0 170 57 0 9 66-66 0 0 42c0 11 3 19 7 24 5 5 13 8 26 8l35 0 0 60c-12 1-29 2-51 2-26 0-46-7-62-23-15-15-23-36-23-64l0-49-57 0 0-66 57 0 0-170-152 0c-23 0-42 8-58 24-16 16-24 35-24 58l0 274c0 23 8 42 24 58 16 16 35 24 58 24z"/>
<glyph glyph-name="envelope" unicode="&#71;" d="M512 309l0-227c0-12-4-23-13-32-9-9-20-13-33-13l-420 0c-13 0-24 4-33 13-9 9-13 20-13 32l0 227c8-9 18-17 29-25 69-47 116-79 142-98 11-8 20-15 26-19 7-4 16-9 27-14 12-4 22-7 32-7l0 0c10 0 20 3 32 7 11 5 20 10 27 14 6 4 15 11 26 19 33 23 80 56 142 98 11 8 21 16 29 25z m0 84c0-15-5-29-14-43-9-14-21-25-35-35-71-50-116-81-134-93-1-1-6-4-12-9-6-4-11-8-15-11-4-2-9-5-15-9-6-3-11-6-16-8-6-1-10-2-15-2l0 0c-5 0-9 1-15 2-5 2-10 5-16 8-6 4-11 7-15 9-4 3-9 7-15 11-6 5-11 8-12 9-18 12-43 30-75 52-33 23-52 36-59 41-12 8-23 19-33 33-11 14-16 27-16 39 0 15 4 27 12 37 8 10 19 15 34 15l420 0c13 0 23-5 32-14 9-9 14-19 14-32z"/>
<glyph glyph-name="icon-fair-trade" unicode="&#72;" d="M256 512c-141 0-256-115-256-256 0-141 115-256 256-256 141 0 256 115 256 256 0 141-115 256-256 256z m-235-256c0 127 103 230 230 230 63 0 115-52 115-115 0-63-52-115-115-115-67-3-120-58-120-125 0-35 14-66 37-89-86 33-147 116-147 214z"/>
<glyph glyph-name="icon-i-care" unicode="&#73;" d="M253 328c-3-1-6-2-9-2-2-1-5-1-8 0-3 2-6 3-9 3-3 1-7 3-10 7-5 2-7 8-10 12-4 5-7 10-10 14-2 3-4 7-8 12-3 5-7 13-7 15-1 2-3 8-5 11-1 3-4 8-6 10-1 3-1 9-1 12 0 3 3 3 4 3 2 0 6 1 8-1 6-2 8-6 11-11 1-2 3-7 4-9 5-5 7-8 9-11 1-2 4-4 5-4 2-1 4 2 4 3 2 2 3 5 3 7 0 2 0 5 0 7 0 3 0 6 0 8 0 3-1 7-1 11-1 2-1 8-1 11 0 3 0 9 0 11 0 3-2 9-2 12 0 4-1 10-1 14 0 2 0 7 0 9 1 3 1 7 1 10 0 1 1 4 3 5 2 3 7 4 10 2 4-3 4-6 4-7 2-3 1-7 2-9 0-3 0-6 0-11 0-2 0-6 0-9 0-3 1-8 1-10 1-3 2-9 2-12-1-4 0-8 1-11 0-2 2-6 4-8 1-1 4 2 4 6-1 7 1 13 0 16 0 2 1 5 1 5-1 1 0 3 0 4 0 2-1 5-1 9 0 2 0 8 0 10 0 8-1 4-1 7 0 3 1 7 1 8 0 4 1 8 2 10 1 3 4 8 8 9 6-1 7-3 8-7 0-1 0-5 1-7 0-2 0-6 0-9 0-3 1-7 1-10 0-1 0-5 0-8-1-3 0-7 0-11l0-10c0-4-1-8 0-12 0-1 1-5 2-6 3 0 6 5 6 13 1 5 2 10 2 14-1 2 1 10 2 12 1 4 1 8 2 11 0 4 1 9 2 13 1 4 2 7 4 8 2 2 5 1 7 1 2-2 3-5 4-8 0-2 0-6-1-8 0-2 1-6 0-9 0-3-1-7-1-10 0-3 0-9 0-13-1-5-1-10-2-15-1-4-3-9-3-12 0-4-2-8 3-9 2-3 5 7 7 9 1 4 4 10 5 14 1 2 3 6 4 9 2 4 3 8 4 11 1 2 4 5 6 5 3 1 5-2 6-4 1-3 0-7 0-11-1-6-3-10-4-14-1-2-3-7-4-9-1-3-3-7-4-9-1-3-3-6-4-9-1-5-2-8-2-12 0-2-1-4-1-7 1-4-1-7 0-11 0-1 0-3-1-6 1-3-1-8-2-10 0-3-2-9-2-10-3-6-3-10-5-13-2-2-4-5-6-7-2-1-3-2-5-3-3-2-6-3-11-3-3 0-7 1-9 2-3 1-7 2-11 2z m-59-41c-1-3-2-6-3-8-1-3-2-6-4-8-3-1-5-3-7-5-3-3-7-5-11-7-5-2-10-1-16-2-6 0-12 0-18-1-3-1-8-1-14-1-5 0-14 0-17 1-2 0-8 1-11 1-4 1-9 1-12 1-3 0-8 3-10 4-3 2-2 5-1 5 0 2 2 6 4 7 5 4 10 4 16 4 2 0 8-2 10-1 6 2 11 2 14 2 2 0 5 1 6 3 2 1 0 4-1 5-1 2-2 4-5 6-1 0-3 2-5 3-3 2-5 3-7 5-3 1-7 1-10 3-3 1-8 4-9 5-3 2-9 4-11 6-2 1-8 3-11 4-3 2-9 4-13 6-2 1-6 4-7 5-2 1-6 3-8 5-1 0-3 3-3 5-1 3 0 8 3 10 5 2 7 0 9 0 3-1 5-3 8-4 2-1 5-2 9-5 1-1 6-3 8-4 3-1 8-4 10-4 3-1 8-4 10-5 3-2 8-3 10-4 2-1 7-2 9-1 2 1 0 5-3 7-5 2-10 7-13 8-2 1-4 3-4 3-1 0-2 1-3 1-3 2-6 2-9 4-1 1-6 4-9 6-7 3-3 1-6 3-2 1-6 4-7 5-3 2-6 5-8 7-2 2-5 7-3 11 3 5 6 5 9 3 2 0 5-2 7-3 1-1 5-3 8-4 2-1 6-3 8-4 2-1 5-3 8-4 2-2 6-4 9-6l9-5c3-2 6-5 10-6 1 0 5-2 6-1 2 2-1 7-7 12-5 3-9 6-12 8-2 1-8 6-9 8-3 3-7 5-8 7-5 2-8 6-11 9-2 2-5 5-5 7-1 3 2 5 3 6 3 1 5 1 8 0 2-1 6-3 7-5 3-1 6-3 8-4 3-2 6-5 8-6 3-2 8-5 12-7 4-4 8-7 12-10 3-2 6-6 9-8 3-2 6-5 9-2 3 1-3 8-5 11-2 4-6 9-8 11-2 2-4 6-6 8-3 4-6 7-8 9-1 3-2 6-1 8 1 2 3 3 6 3 3 0 7-3 10-6 4-4 7-7 10-10 1-1 4-6 6-8 2-3 4-6 6-8 1-2 3-6 5-8 4-3 7-5 10-7 2-1 3-2 6-4 3-2 5-4 9-6 1 0 3-1 5-3 3-1 6-5 7-7 3-2 7-6 8-7 3-6 7-8 8-11 1-3 3-6 4-8 0-2 0-5 0-6 0-4 0-7-2-12-2-2-5-5-7-7-3-1-6-5-8-8z m3-67c2-3 4-5 6-7 2-2 3-4 4-8 0-2 1-6 2-8 0-4 0-9-1-13 0-5-4-10-6-14-2-6-5-11-7-17-1-2-4-7-7-12-2-5-7-12-9-15-1-1-5-6-7-9-2-3-4-7-6-10-1-3-7-6-9-7-3-1-5 1-5 2-1 1-4 5-4 7-1 6 1 10 4 16 1 2 5 6 6 8 2 6 4 10 6 13 1 2 1 5 0 7 0 2-3 2-5 2-3 1-5 0-7-2-2 0-4-2-6-2-3-2-5-3-8-5-2-1-5-4-8-6-2-2-7-5-9-6-3-2-8-5-10-6-2-2-6-6-9-8-3-2-8-6-12-8-2-1-5-3-7-4-2-1-6-3-9-4-1-1-4-1-6 0-3 0-7 4-7 8 1 4 4 6 5 7 1 3 4 4 6 6 3 1 5 3 9 5 2 1 6 3 8 4 2 2 7 6 8 7 3 2 7 5 10 7 3 2 6 5 8 6 2 2 5 5 5 8 1 1-3 3-7 0-5-3-11-5-13-7-2-1-5-2-5-2-1-1-2-1-3-2-3-1-5-4-8-5-1-1-6-4-9-6-7-3-3-2-6-3-2-1-6-3-8-4-3-2-6-3-9-3-4-1-9-1-11 3-3 5-2 7 1 9 1 1 5 4 6 4 2 1 6 4 8 5 2 2 5 5 7 6 2 1 6 2 8 4 3 1 6 4 9 6l9 5c4 2 7 3 10 5 1 1 5 4 4 5-1 3-6 3-14 0-4-2-9-4-13-6-1-2-8-4-11-4-4-1-8-3-11-4-3-2-8-3-12-5-3-1-7-2-9 0-3 1-3 4-4 5 1 3 3 5 5 7 2 2 5 3 7 4 3 1 6 3 8 5 3 1 7 2 9 3 3 2 9 4 12 7 5 2 10 4 14 5 4 1 9 2 12 4 3 2 8 2 6 7 1 3-8 2-11 1-5 0-11-1-14-2-3 0-8 0-10-1-5 0-9-1-11-2-3-1-7 1-8 2-2 2-1 5 0 8 2 2 7 3 10 5 5 2 10 3 14 3 2 1 8 1 10 2 3 0 7 1 10 1 3 0 6 0 9 1 5 1 8 3 11 4 2 1 4 2 7 4 3 2 7 2 9 4 1 1 3 2 6 3 3 2 7 3 10 3 2 1 9 3 10 4 6 0 10 2 14 1 2 0 6 0 8-1 3-1 5-2 6-3 3-1 6-3 8-7 2-3 3-8 4-10 0-3 1-7 3-10z m62-36c3 1 6 2 9 2 2 1 5 1 8 0 3-2 6-3 9-3 3-1 7-3 10-7 5-2 7-8 10-12 4-5 7-10 10-14 2-3 4-7 8-12 3-5 7-13 7-15 1-2 3-8 5-11 1-3 4-8 6-10 1-3 1-9 1-12 0-3-3-3-4-3-2 0-6-1-8 1-6 2-8 6-11 11-1 2-3 7-4 9-5 5-7 8-9 11-1 2-4 4-5 4-2 1-4-2-4-3-2-2-3-5-3-7 0-2 0-5 0-7 0-3 0-6 0-8 0-3 1-7 1-11 1-2 1-8 1-11 0-3 0-9 0-11 0-3 2-9 2-12 0-4 1-10 1-14 0-2 0-7 0-9-1-2-1-6-1-9 0-2-1-5-2-6-3-2-8-4-11-2-4 3-3 6-4 8-1 3-1 6-1 9-1 2-1 5 0 10 0 2-1 6-1 9 0 3-1 9-1 11-1 3-2 8-1 11 0 4-1 8-1 11-1 3-3 7-4 8-2 1-4-2-4-6 0-6-1-13-1-15 0-3 0-5 0-6 0-1 0-2 0-3 0-3 1-6 0-9 0-3 1-8 1-11 0-8 0-3 0-7 0-2-1-7-1-8 0-4-1-8-2-10-1-3-4-8-8-8-6 0-7 3-7 6 0 1-1 6-1 7 0 2-1 7-1 9 0 3-1 7-1 10 0 1 0 6 0 8 1 4 0 8 0 11l0 10c0 5 1 8 0 12 0 1 0 6-2 6-3 0-5-4-6-12 0-5-1-11-1-15 0-2-2-9-2-12-2-3-2-8-3-10 0-5-1-9-2-14-1-3-1-7-4-8-2-2-4-1-6 0-3 1-4 4-4 7-1 2 0 6 0 8 0 3 0 7 0 10 0 3 1 7 1 9 0 4 1 9 1 13 0 6 1 11 2 16 1 3 3 8 3 12 0 3 1 7-3 8-3 3-6-6-7-9-2-4-4-10-5-13-1-3-4-7-5-9-2-5-3-8-3-11-2-3-4-5-6-6-3 0-5 2-7 4-1 3 0 7 1 12 1 5 2 10 4 13 1 2 3 7 4 10 1 2 2 7 3 9 2 2 4 5 5 8 1 5 1 9 1 12 0 2 1 4 1 7 0 4 1 7 1 11-1 1-1 4 0 6 0 3 1 8 2 10 1 3 2 9 2 10 3 6 4 10 6 13 1 2 3 6 5 7 2 1 4 3 5 3 3 2 6 3 11 4 4-1 8-2 10-2 2-2 6-3 10-3z m59 41c1 3 2 6 3 8 1 3 2 6 4 8 3 1 5 3 7 5 3 3 7 5 11 7 5 2 10 1 16 2 6 0 12 0 18 1 3 1 8 1 14 1 5 0 14 0 17-1 2 0 8-1 11-1 4-1 9-1 12-1 3 0 8-3 10-4 3-2 2-5 1-5 0-2-2-6-4-7-5-4-10-4-16-4-2 0-8 2-10 1-6-2-11-2-14-2-2 0-5-1-6-3-2-1 0-4 1-5 1-2 2-4 5-6 1 0 3-2 5-3 3-2 5-3 7-5 3-1 7-1 10-3 3-1 8-4 9-5 3-2 9-4 11-6 2-1 8-3 11-4 3-2 9-4 13-6 2-1 6-4 7-5 2-1 6-3 8-5 1 0 3-3 3-5 1-3 0-8-3-10-5-2-7 0-9 0-3 1-5 3-8 4-2 1-5 2-9 5-1 1-6 3-8 4-3 1-8 4-10 4-3 1-8 4-10 5-3 2-8 3-10 4-2 1-7 2-9 1-2-1 0-5 3-7 5-2 11-7 13-8 2-1 4-3 4-3 1 0 2-1 3-1 3-2 6-2 9-4 1-1 6-4 9-6 7-3 3-1 6-3 2-1 6-4 7-5 3-2 6-5 8-7 2-2 5-7 3-11-3-5-6-5-9-3-2 0-5 2-7 3-1 1-5 3-8 4-2 1-6 3-8 4-2 1-5 3-8 4-2 2-6 4-9 6l-9 5c-3 2-6 5-10 6-1 0-5 2-6 1-2-2 1-7 7-12 5-3 9-6 12-8 2-1 8-6 9-8 3-3 7-5 8-7 5-2 8-6 11-9 2-2 5-5 5-7 1-3-2-5-3-6-3-1-5-1-8 0-2 1-6 3-7 5-3 1-6 3-8 4-3 2-6 5-8 6-3 2-8 5-12 7-4 4-8 7-12 10-3 2-6 6-9 8-3 2-6 5-9 2-3-1 3-8 5-11 2-4 6-9 8-11 2-2 4-6 6-8 3-4 6-7 8-9 1-3 2-6 1-8-1-2-3-3-6-3-3 0-7 3-10 6-4 4-7 7-10 10-1 1-4 6-6 8-2 3-4 6-6 8-1 2-3 6-5 8-4 3-7 5-10 7-2 1-3 2-6 4-3 2-5 4-9 6-1 0-3 1-5 3-3 1-6 5-7 7-3 2-7 6-8 7-3 6-7 8-8 11-1 3-3 6-4 8 0 2 0 5 0 6 0 4 0 7 2 12 2 2 5 5 7 7 3 1 6 5 8 8z m-3 67c-2 3-4 5-6 7-2 2-3 4-4 8 0 2-1 6-2 8 0 4 0 9 1 13 0 5 4 10 6 14 2 6 5 11 7 17 1 2 4 7 7 12 2 5 7 12 9 15 1 1 5 6 7 9 2 3 4 7 6 10 1 3 7 6 9 7 3 1 5-1 5-2 1-1 4-5 4-7 1-6-1-10-4-16-1-2-5-6-6-8-2-6-4-10-5-13-2-2-2-5-1-7 0-2 3-2 5-2 3-1 5 0 7 2 2 0 4 2 6 2 3 2 5 3 8 5 2 1 5 4 8 6 2 2 7 5 9 6 3 2 8 5 10 6 2 2 6 6 9 8 3 2 8 6 12 8 2 1 5 3 7 4 2 1 6 3 9 4 1 1 4 1 6 0 3 0 7-4 7-8-1-4-4-6-5-7-1-3-4-4-6-6-3-1-5-3-9-5-2-1-6-3-8-4-2-2-7-6-8-7-3-2-7-5-10-7-3-2-6-5-8-6-2-2-5-5-5-8-1-2 3-3 7 0 5 3 11 5 13 7 2 1 5 2 5 2 1 1 2 1 3 2 3 1 5 4 8 5 1 1 6 4 9 6 7 3 3 2 6 3 2 1 6 3 8 4 3 2 6 3 9 3 4 1 9 1 11-3 3-5 2-7-1-9-1-1-5-4-6-4-2-1-6-4-8-5-2-2-5-5-7-6-2-1-6-2-8-4-3-1-6-4-9-6l-9-5c-3-2-7-3-10-5-1-1-5-4-4-5 1-3 6-3 14 0 4 2 9 4 13 6 1 2 8 4 11 4 4 1 8 3 11 4 3 2 8 3 12 5 3 1 7 2 9 0 3-1 3-4 4-5-1-3-3-5-5-7-1-2-5-3-7-4-3-1-6-3-8-5-3-1-7-2-9-3-3-2-9-4-12-7-5-2-10-4-14-5-4-1-9-2-12-4-3-2-8-2-6-7-1-3 8-2 11-1 5 0 11 1 14 2 3 0 8 0 10 1 5 0 9 1 11 2 3 1 7-1 8-2 2-2 1-5 0-8-2-2-7-3-10-5-5-2-10-3-14-3-2-1-8-1-10-2-3 0-7-1-10-1-3 0-6 0-9-1-5-1-8-3-11-4-2-1-4-2-7-4-3-2-7-2-9-4-1-1-3-2-6-3-3-2-7-3-10-3-2-1-9-3-10-4-6 0-10-2-14-1-2 0-6 0-8 1-3 1-5 2-6 3-3 1-6 3-8 7-2 3-3 8-4 10 0 3-1 7-3 10z"/>
<glyph glyph-name="icon-promotions" unicode="&#74;" d="M307 229c0 1-1 2-2 3 0 1-1 1-1 1 0 1-1 1-2 0-1 0-2-1-3-2-1-1-3-2-5-4-2-2-4-3-7-5-3-2-6-3-10-4-5-1-8-1-12 0-3 0-6 1-9 2-2 2-4 4-6 6-3 3-4 6-5 9l28 6c1 1 2 1 2 3 0 1 0 3 0 7-1 1-1 2-1 4-1 1-1 2-2 2 0 1-1 1-1 1 0 1-1 1-1 0l-30-6c-1 1-1 2-1 4-1 1-1 2-1 3 0 2-1 3-1 4 0 1 0 3 0 4l30 6c1 0 1 1 2 2 0 2 0 4-1 7 0 2 0 3-1 4 0 1 0 2-1 3 0 0-1 1-1 1-1 0-1 0-2 0l-28-6c0 4 0 7 1 10 1 3 2 6 3 9 2 2 4 4 7 6 2 2 6 3 9 4 4 1 8 1 11 1 3-1 6-1 9-2 2 0 4-1 6-2 2 0 3 0 4 0 1 0 1 0 1 0 1 1 1 1 1 2 0 1 0 2 0 3 0 1 0 3-1 4 0 3-1 4-1 6 0 1-1 3-1 3-1 1-1 2-2 3 0 0-1 1-2 1-1 1-2 1-4 2-2 0-4 1-7 1-3 0-6 0-10 0-3 0-6-1-10-2-8-1-15-4-20-7-5-3-9-8-13-12-3-5-5-11-7-17-1-6-2-12-2-19l-10-3c-1 0-1 0-2 0 0-1 0-1 0-2 0-1-1-2 0-3 0-1 0-2 0-4 1-3 2-5 2-6 1-1 2-2 3-2l9 2c1-1 1-2 1-3 0-2 1-3 1-4 0-1 0-2 0-4 1-1 1-2 1-3l-9-2c-1 0-1 0-2-1 0 0 0-1 0-1 0-1 0-2 0-3 0-1 0-2 1-4 0-3 1-6 2-7 1-1 2-1 3-1l10 2c2-7 6-12 9-17 4-5 8-9 14-12 5-3 10-4 17-5 6-1 13-1 21 1 4 1 8 2 11 3 3 1 6 3 8 4 3 1 5 3 6 4 2 2 3 3 4 4 1 1 1 3 1 4 1 2 0 5 0 8 0 3-1 5-1 6z m173 117c1 1 1 1 2 1 6 3 9 9 7 15-2 6-9 9-15 7-9-3-17-9-23-16 1 0 2 0 3 0 10-1 18-3 26-7z m15-28c-4 16-21 27-41 27-1 0-2 0-3 0l-1 0c-11-1-22-5-32-13-30 53-94 90-168 90-28 0-55-6-80-15-20 19-51 24-86 14 17-17 24-34 26-52-35-28-31-53-47-67-8-7-29 1-39-7-11-9-11-54-2-65 8-11 48-9 48-9 0-11-9-23-22-28 0 0 9-21 54-21 0 0 18-22 41-33 0 0 1-36 11-45 10-10 47-11 55 0 5 5 5 19 5 19 12-1 24-2 36-2 21 0 41 3 60 8 0 0-1-19 5-25 10-10 47-11 55 0 12 14 11 62 11 62 33 28 54 67 54 110 0 16-3 31-8 46 2 2 5 4 7 5 0-13 5-26 15-32 5-3 11-5 17-5 6 0 13 2 18 6 11 7 15 19 11 32z m-218-154c-54-12-108 23-120 78-11 54 24 108 78 119 55 12 108-23 120-77 12-55-23-108-78-120z m194 139c-1-1-3-1-5-1-1 0-3 0-4 1-4 2-6 11-4 19 8-2 14-6 15-10 2-6-1-8-2-9z"/>
<glyph glyph-name="calendar" unicode="&#75;" d="M55 37l82 0 0 82-82 0z m100 0l92 0 0 82-92 0z m-100 100l82 0 0 92-82 0z m100 0l92 0 0 92-92 0z m-100 110l82 0 0 82-82 0z m210-210l92 0 0 82-92 0z m-110 210l92 0 0 82-92 0z m220-210l82 0 0 82-82 0z m-110 100l92 0 0 92-92 0z m-100 247l0 82c0 3-1 5-3 7-2 2-4 2-7 2l-18 0c-2 0-4 0-6-2-2-2-3-4-3-7l0-82c0-2 1-5 3-6 2-2 4-3 6-3l18 0c3 0 5 1 7 3 2 1 3 4 3 6z m210-247l82 0 0 92-82 0z m-110 110l92 0 0 82-92 0z m110 0l82 0 0 82-82 0z m9 137l0 82c0 3-1 5-3 7-2 2-4 2-6 2l-18 0c-3 0-5 0-7-2-2-2-3-4-3-7l0-82c0-2 1-5 3-6 2-2 4-3 7-3l18 0c2 0 4 1 6 3 2 1 3 4 3 6z m110 18l0-365c0-10-4-19-11-26-7-7-16-11-26-11l-402 0c-10 0-19 4-26 11-7 7-11 16-11 26l0 365c0 10 4 19 11 26 7 7 16 11 26 11l36 0 0 27c0 13 5 24 14 33 9 9 20 13 32 13l18 0c13 0 24-4 33-13 9-9 13-20 13-33l0-27 110 0 0 27c0 13 4 24 13 33 9 9 20 13 33 13l18 0c12 0 23-4 32-13 9-9 14-20 14-33l0-27 36 0c10 0 19-4 26-11 7-7 11-16 11-26z"/>
<glyph glyph-name="hand-pointer-o" unicode="&#76;" d="M183 475c-10 0-19-3-26-10-7-7-11-16-11-26l0-256-43 58c-8 10-18 15-30 15-10 0-19-4-26-11-7-7-10-16-10-26 0-8 2-15 7-22l110-146c7-10 17-14 29-14l205 0c4 0 8 1 11 3 4 3 6 6 7 10l26 105c5 19 7 37 7 56l0 62c0 8-3 14-8 20-5 6-12 9-20 9-7 0-14-3-19-8-5-6-8-12-8-20l-9 0 0 18c0 9-3 17-9 23-6 6-14 10-23 10-9 0-16-4-23-10-6-6-9-14-9-22l0-19-9 0 0 26c0 10-4 19-11 27-7 8-16 11-26 11-10 0-19-3-26-10-7-8-10-16-10-26l0-28-10 0 0 163c0 11-3 20-10 27-7 8-16 11-26 11z m0 37c20 0 38-7 52-22 14-15 21-32 21-53l0-63c4 1 7 1 9 1 19 0 35-7 50-20 9 4 18 6 28 6 21 0 39-8 52-25 6 2 11 2 16 2 18 0 33-6 46-19 12-13 18-28 18-46l0-62c0-22-2-44-8-64l-26-106c-3-12-9-22-19-29-10-8-21-12-34-12l-205 0c-12 0-22 3-33 8-10 5-19 12-26 21l-109 146c-10 13-15 28-15 44 0 20 7 38 21 52 14 14 32 22 52 22 13 0 25-4 37-10l0 156c0 20 7 37 21 52 14 14 32 21 52 21z m36-402l0 109-9 0 0-109z m74 0l0 109-10 0 0-109z m73 0l0 109-9 0 0-109z"/>
<glyph glyph-name="single-tap" unicode="&#77;" d="M362 0c-5 0-9 4-9 9l0 37c0 1 1 3 2 5l39 60 0 149-143 42c-5 1-8 7-7 12 2 4 7 8 12 6l150-45c4-1 7-4 7-8l0-159c0-2-1-4-1-6l-40-59 0-34c0-5-4-9-10-9z m-178 0c-5 0-9 4-9 9l0 33-51 60c-3 3-3 10 1 13 4 3 10 3 13-1l53-62c2-2 3-4 3-6l0-37c0-5-5-9-10-9z m3 175c-5 0-9 4-9 9l0 203c0 22 18 40 40 40 23 0 41-18 41-40l0-147c0-6-4-10-9-10-6 0-10 4-10 10l0 147c0 12-9 22-21 22-12 0-22-10-22-22l0-203c0-5-4-9-10-9z m114 40c-5 0-9 4-9 9l0 73c0 5 4 10 9 10 5 0 9-5 9-10l0-72c0-6-4-10-9-10z m51-15c-5 0-9 4-9 9l0 73c0 5 4 9 9 9 5 0 9-4 9-9l0-73c0-5-4-9-9-9z m-221-102c-5 0-9 4-9 10l0 86c0 30 25 55 55 55l10 0c6 0 10-4 10-9 0-6-4-10-10-10l-10 0c-20 0-37-16-37-36l0-86c0-5-4-10-9-10z m-22 244c-6 0-10 4-10 10l0 39c0 67 54 121 121 121 66 0 121-54 121-121l0-32c0-5-4-9-10-9-5 0-9 4-9 9l0 32c0 56-46 102-102 102-56 0-102-46-102-102l0-39c0-6-4-10-9-10z"/>
<glyph glyph-name="whatsapp" unicode="&#78;" d="M318 234c2 0 12-4 28-13 16-8 24-13 25-15 1-1 1-2 1-4 0-7-2-14-5-22-3-7-10-14-20-19-11-5-20-7-29-7-11 0-29 6-55 17-18 9-34 20-48 34-14 14-28 32-42 53-14 20-21 39-21 55l0 3c1 17 8 32 21 45 5 4 10 6 15 6 1 0 3 0 5 0 3-1 5-1 6-1 3 0 6 0 7-2 2-1 3-3 5-7 1-4 5-13 9-26 5-13 7-20 7-21 0-4-3-9-9-16-7-7-10-12-10-14 0-1 0-2 1-4 7-14 16-27 29-39 11-10 25-20 43-29 3-1 5-2 7-2 3 0 8 5 15 14 8 9 13 14 15 14z m-58-152c24 0 47 5 70 15 22 9 41 22 57 38 16 16 29 35 38 57 10 22 14 46 14 70 0 24-4 47-14 69-9 22-22 42-38 58-16 16-35 28-57 38-23 9-46 14-70 14-24 0-47-5-70-14-22-10-41-22-57-38-16-16-29-36-38-58-10-22-14-45-14-69 0-39 11-74 34-105l-23-67 69 22c31-20 63-30 99-30z m0 395c29 0 57-6 84-17 26-11 49-27 68-46 20-19 35-42 46-69 12-26 17-54 17-83 0-29-5-57-17-84-11-26-26-49-46-69-19-19-42-34-68-46-27-11-55-17-84-17-37 0-72 9-104 27l-119-38 38 116c-20 33-30 71-30 111 0 29 5 57 17 83 11 27 26 50 46 69 19 19 42 35 68 46 27 11 55 17 84 17z"/>
<glyph glyph-name="icono-navidad-arbolito" unicode="&#60;" d="M258 508c4-7 8-14 12-21 6-13 14-24 23-35 8-11 19-21 29-30 2-1 5-3 7-5-4-3-10-4-15-4-10-1-20-1-32-2 20-41 53-66 97-78-4-3-7-6-10-9-10-8-22-12-33-15-9-3-19-5-28-7 3-5 5-9 8-13 7-8 13-15 20-22 10-11 24-21 38-27 15-8 31-15 47-23-3-2-6-6-10-8-15-11-31-18-50-22-7-1-15-3-24-5 5-4 8-8 12-11 12-8 23-17 36-24 11-6 22-10 33-15 9-4 19-7 28-10 1-1 2-1 4-1-2-3-3-5-5-6-6-5-12-10-18-14-13-7-27-13-42-17-16-3-32-2-47 1-16 3-32 9-47 15-5 2-10 3-15 5-3 1-4 0-4-3-1-10 2-19 14-19 1 0 3-1 5-1 5 0 8-3 7-8-2-11-4-22-6-33-3-13-5-26-7-39 0-2-1-3-3-3-15 0-30 0-46 0-2 0-4 1-6 1-1 6-2 11-3 17-3 18-6 37-9 55-2 9-1 8 8 10 3 1 8 1 11 3 5 3 8 13 6 19-1 2-2 1-4 1-9-4-19-7-28-11-18-7-37-11-56-12-23 0-44 6-64 17-10 5-19 12-29 18 42 16 83 33 117 65-32 6-61 16-87 35 5 2 8 4 12 5 23 9 45 21 64 36 16 12 29 26 39 43 0 0 0 0 1 1-13 3-25 7-37 11-12 4-23 9-33 19 4 2 8 4 12 6 17 6 33 15 47 27 13 12 24 26 33 41 1 1 1 2 2 3 0 1 1 2 1 4-15 2-32-2-48 4 17 12 31 25 42 41 11 16 20 33 31 50z"/>
<glyph glyph-name="icono-fullscreen" unicode="&#61;" d="M471 87l-106 105-45-45 105-106-41-41 128 0 0 128z m-46 384l-105-106 45-45 106 105 41-41 0 128-128 0z m-384-46l106-105 45 45-105 106 41 41-128 0 0-128z m151-278l-45 45-106-105-41 41 0-128 128 0-41 41z"/>
<glyph glyph-name="icono-fullscreen-close" unicode="&#57346;" d="M361 105l106-105 45 45-105 106 41 41-128 0 0-128z m46 256l105 106-45 45-106-105-41 41 0-128 128 0z m-256 46l-106 105-45-45 105-106-41-41 128 0 0 128z m-151-362l45-45 106 105 41-41 0 128-128 0 41-41z"/>
<glyph glyph-name="times-circle" unicode="&#119;" d="M365 191c0 5-2 10-6 13l-51 52 51 52c4 3 6 8 6 13 0 5-2 9-6 13l-25 25c-4 4-8 6-13 6-5 0-10-2-13-6l-52-51-52 51c-3 4-8 6-13 6-5 0-9-2-13-6l-25-25c-4-4-6-8-6-13 0-5 2-10 6-13l51-52-51-52c-4-3-6-8-6-13 0-5 2-9 6-13l25-25c4-4 8-6 13-6 5 0 10 2 13 6l52 51 52-51c3-4 8-6 13-6 5 0 9 2 13 6l25 25c4 4 6 8 6 13z m110 65c0-40-9-77-29-110-20-34-46-60-80-80-33-20-70-29-110-29-40 0-77 9-110 29-34 20-60 46-80 80-20 33-29 70-29 110 0 40 9 77 29 110 20 34 46 60 80 80 33 20 70 29 110 29 40 0 77-9 110-29 34-20 60-46 80-80 20-33 29-70 29-110z"/>
<glyph glyph-name="unlock-alt" unicode="&#57347;" d="M393 293c8 0 14-3 20-8 5-6 8-12 8-20l0-164c0-8-3-15-8-20-6-5-12-8-20-8l-274 0c-8 0-14 3-20 8-5 5-8 12-8 20l0 164c0 8 3 14 8 20 6 5 12 8 20 8l9 0 0 91c0 35 13 65 38 90 25 25 55 38 90 38 35 0 65-13 90-38 25-25 38-55 38-90 0-5-2-9-5-13-4-3-8-5-13-5l-19 0c-5 0-9 2-12 5-4 4-6 8-6 13 0 20-7 37-21 52-15 14-32 21-52 21-20 0-37-7-52-21-14-15-21-32-21-52l0-91z"/>
<glyph glyph-name="cupoes-old" unicode="&#57351;" d="M281 230c-11 5-22-1-26-10-4-10 0-22 11-26 9-4 21 1 25 11 4 9-1 21-10 25z m-61-15l104 69-32 13-104-69z m88-19c-8-19-30-28-49-20l-97 41 41 98c8 19 30 29 50 21l97-41z m45 117l-94 39c-28 11-60-1-72-30l-40-95c-4-10 1-23 12-27l94-40c28-11 60 1 72 29l39 95c5 11 0 24-11 29z m-132-6c-4-10 0-21 10-25 11-5 21 0 26 10 4 10-1 21-11 25-10 4-21 0-25-10z m-3 171l12-5 7 15-12 5-16 7-159-382 7-3 0 0 19-8 7 16-11 4z m244-84l-16 7 0-1-10 5-7-16 11-4-146-350-12 5-7-16 19-8 9-4z m-346-304l6 16 40-16-6-16z m79-33l7 16 40-16-7-16z m155 366l6 15 40-16-6-16z m-80 33l6 16 40-17-6-16z"/>
<glyph glyph-name="icon-cartao-old" unicode="&#57348;" d="M512 94l-511 0 0 324 511 0z m-497 14l483 0 0 296-483 0z m29 148c0 4 1 8 2 11 1 3 3 5 6 8 2 2 5 4 8 5 3 2 6 2 10 2 2 0 4 0 6 0 3-1 5-2 7-3 1-1 2-3 2-5 0-2 0-3-1-4 0-1-2-2-3-2-1 0-2 1-5 1-2 1-4 2-6 2-3 0-5-1-7-2-2-2-4-4-5-6-1-3-1-5-1-8 0-6 1-11 4-13 3-2 6-4 9-4 2 0 4 1 5 1l4 2c1 0 1 0 2 0 2 0 3 0 4-1 1-1 1-3 1-4 0-3-1-4-4-6-3-2-7-3-12-3-3 0-7 1-10 2-3 1-5 3-7 5-6 5-9 12-9 22z m49-22l0 46c0 1 0 2 0 3 1 1 1 1 2 2 1 1 2 1 3 1 2 0 3-1 4-2 1-1 2-3 2-4l0-45c0-2 0-4-1-5-1-1-3-1-4-1-2 0-3 0-4 1-1 1-2 3-2 4z m20 10l0 18c0 2 0 4 1 5 1 1 3 1 4 1 2 0 4 0 5-1 1-2 1-3 1-5l0-17c0-2 1-3 2-4 1-2 3-2 4-2 2 0 3 0 5 2 1 1 2 2 2 4l0 17c0 2 0 4 1 5 1 1 2 1 4 1 2 0 3 0 4-1 1-1 1-3 1-5l0-18c0-4-1-7-2-9-2-2-4-4-7-5-2-1-5-2-8-2-3 0-6 1-8 2-3 1-5 2-7 5-1 2-2 5-2 9z m44-10l0 46c0 1 1 2 1 3 0 1 1 1 2 2 1 1 2 1 3 1 2 0 3-1 4-2 1-1 2-3 2-4l0-14c3 2 6 3 9 3 2 0 5 0 7-1 2-1 4-3 6-5 2-2 3-4 4-6 1-3 1-5 1-7 0-7-2-13-6-17-3-3-7-5-12-5-4 0-7 2-9 5-1-3-3-5-5-5-2 0-4 1-5 2-1 1-2 2-2 4z m12 14c0-2 0-4 2-6 1-2 3-3 5-3 2 0 4 0 5 1 1 1 2 2 2 4 1 1 1 3 1 4 0 3 0 5-2 7-1 2-3 3-6 3-1 0-3 0-4-1-1-1-2-2-3-4 0-1 0-3 0-5z m274 5c-6 0-9-4-9-9 0-4 3-9 9-9 4 0 8 5 8 9 0 5-4 9-8 9z m-23-17l31 47-15 0-31-47c0 0 15 0 15 0z m40 8c0-9-8-17-17-17l-47 0 0 48c0 9 7 17 17 17l47 0z m-2 56l-45 0c-14 0-25-11-25-25l0-46c0-5 4-9 10-9l45 0c14 0 25 10 25 24l0 46c0 5-4 10-10 10z m-53-25c0-5 3-9 8-9 5 0 9 4 9 9 0 5-4 8-9 8-5 0-8-3-8-8z m-125-47l16 0 0 53-16-7z m62 22c-2-5-6-8-12-8-6 0-11 5-11 11 0 7 5 12 11 12 7 0 12-5 12-12 0-1 0-2 0-3z m-11 30c-15 0-27-12-27-27 0-16 13-26 26-26 5 0 11 1 15 6l13-6 0 26c0 15-13 27-27 27z m-91-37l-9 0 0 33 9 0c9-1 16-8 16-17 0-9-7-16-16-16z m-1 48l-23 0 0-64 23 0c18 0 32 15 32 32 0 18-14 32-32 32"/>
<glyph glyph-name="icon-cartao" unicode="&#57349;" d="M6 256l0-172 500 0 0 344-500 0z m494 0l0-166-482 0 0 332 482 0z m-280 63c-13-2-20-5-15-5 6-1 6-3 1-8-4-4-7-11-7-16 0-6 3-4 8 5 7 15 9 15 78 17l71 2-3-29c-3-22-2-25 2-11 3 10 5 25 6 35l0 16-58 0c-33-1-70-3-83-6z m-38-16c-3-6-9-28-13-50-4-22-9-45-11-52l-3-14 85 0c88 0 103 4 103 29 0 7-2 5-8-5-7-15-9-15-77-17-63-1-71-1-73 9-2 10-3 10-4 1 0-6-4-11-8-11-7 0-7 9 2 53 5 29 11 56 14 60 3 4 3 7 1 7-1 0-5-5-8-10z m60-15c-6-9-37-69-37-74 0-1 4-3 9-6 6-2 12 4 19 20l10 22 3-20c5-30 15-30 36 0l19 25-2-24c0-17 2-23 8-23 6 0 11 12 16 39 10 51 10 48-3 48-6 0-20-10-30-22l-18-23-1 23c0 17-2 22-11 22-6 0-14-3-18-7z m-48-23c0-8 1-11 3-7 1 3 1 11 0 15-2 3-3 0-3-8z m151-24c0-8 1-11 3-7 1 3 1 11 0 15-2 3-3 0-3-8z m-157-12c0-9 1-12 3-7 1 3 1 10 0 15-2 3-3 0-3-8z"/>
<glyph glyph-name="cupoes" unicode="&#57350;" d="M150 370c-42-72-87-150-99-171-12-21-22-40-22-42 0-3 8-9 18-14 10-6 17-9 17-6 0 3-7 8-15 12-14 7-15 8-7 20 5 7 27 45 49 84 22 39 62 109 90 156l50 84 14-9c8-5 15-7 15-3 0 3-8 9-17 14l-17 8z m121 100c0-5 26-19 34-19 2 0 0 4-3 9-8 9-31 16-31 10z m42-23c0-6 26-19 37-19 4 0-2 5-12 11-22 13-25 15-25 8z m55-34c7-5 16-9 21-9 6 1 4 3-5 9-20 11-30 10-16 0z m33-18c0-1 9-6 18-12 10-5 18-7 18-4 0 3-7 8-15 12-16 8-21 8-21 4z m55-33c16-12 16-13 8-30-6-9-9-19-9-20 0-3-2-6-5-8-5-4-78-128-134-229-29-54-40-64-55-48-4 3-9 5-11 3-2-2 5-8 15-13 11-6 20-9 21-8 1 1 24 40 50 87 28 48 72 125 99 171 27 47 49 86 48 86-18 13-33 21-37 21-3 0 1-6 10-12z m-272-57c-33-35-52-60-48-62 18-14 112-65 112-61 0 1-20 13-45 27l-43 25 18 24c48 61 63 70 88 57 20-10 12-2-10 11-11 8-25 13-30 13-6 0-24-15-42-34z m35 6c-12-12-32-34-43-48-13-16-24-25-28-22-5 3 0 13 16 32 42 49 54 60 66 60 11 0 9-3-11-22z m64-5c0-1 11-8 24-14 13-7 23-11 23-9 0 1-10 8-23 15-13 6-24 10-24 8z m-61-36c-18-11-33-25-33-29 0-12 11-10 29 3 21 17 26 15 14-6-13-26-3-35 25-22 27 13 29 13 17-5-8-11-9-16-4-21 5-5 13-1 29 19 30 34 34 41 27 48-5 5-14 4-32-3-34-13-36-13-26 8 10 18 8 30-4 30-4 0-23-10-42-22z m107-56c-22-26-37-45-32-43 9 3 78 85 74 87-1 1-20-19-42-44z m-71-41c4-4 9-6 10-4 2 1-1 5-7 7-8 3-9 3-3-3z m-173-53c10-6 21-12 24-12 9 1-23 24-33 24-5 0 0-5 9-12z m33-16c0-6 29-21 33-17 2 1-5 7-15 12-10 5-18 7-18 5z m41-24c0-6 26-19 37-19 4 0-2 5-12 12-21 13-25 14-25 7z m42-27c1-1 12-7 23-12l21-10-14 12c-8 7-18 12-24 12-4 0-7-1-6-2z"/>
<glyph glyph-name="icon-newproducts" unicode="&#57352;" d="M256 512c-141 0-256-115-256-256 0-141 115-256 256-256 141 0 256 115 256 256 0 141-115 256-256 256z m113-156c0 9 2 16 7 22 5 6 11 9 20 9 8 0 15-3 20-9 5-6 7-13 7-22l0-122c0-9-2-16-7-22-5-5-12-8-20-8-9 0-15 3-20 9-5 5-7 13-7 21z m-45-203c0-12-3-20-8-26-6-7-14-10-21-10-11 0-20 4-25 12l-123 156 0-133c0-10-2-18-8-25-5-6-12-10-22-10-9 0-17 4-23 10-5 7-8 15-8 25l0 211c0 9 3 17 9 23 5 6 13 9 21 9 11 0 20-5 27-14l120-150 0 129c0 10 2 18 7 25 6 7 13 10 23 10 9 0 17-3 23-10 5-6 8-15 8-25z m91-22c-6-6-13-9-21-9-9 0-16 3-23 9-6 6-9 13-9 22 0 8 3 15 9 21 7 7 14 10 23 10 5 0 10-2 15-4 4-3 8-7 11-12 3-5 4-10 4-15 0-9-3-16-9-22z"/>
</font>
</defs>
</svg>
