<?xml version="1.0" encoding="utf-8"?>
<!-- Generator: Adobe Illustrator 19.2.1, SVG Export Plug-In . SVG Version: 6.00 Build 0)  -->
<svg version="1.1" id="Layer_3" xmlns="http://www.w3.org/2000/svg" xmlns:xlink="http://www.w3.org/1999/xlink" x="0px" y="0px"
	 viewBox="0 0 150 150" style="enable-background:new 0 0 150 150;" xml:space="preserve">
<style type="text/css">
	.st0{fill:#ffffff;}
</style>
<g>
	<path class="st0" d="M150,20.7v12.5c0,1.7-0.6,3.2-1.9,4.4c-1.2,1.2-2.7,1.9-4.4,1.9H6.3c-1.7,0-3.2-0.6-4.4-1.9
		C0.6,36.4,0,34.9,0,33.2V20.7c0-1.7,0.6-3.2,1.9-4.4c1.2-1.2,2.7-1.9,4.4-1.9h137.5c1.7,0,3.2,0.6,4.4,1.9
		C149.4,17.6,150,19,150,20.7z M150,70.7v12.5c0,1.7-0.6,3.2-1.9,4.4c-1.2,1.2-2.7,1.9-4.4,1.9H6.3c-1.7,0-3.2-0.6-4.4-1.9
		C0.6,86.4,0,84.9,0,83.2V70.7c0-1.7,0.6-3.2,1.9-4.4c1.2-1.2,2.7-1.9,4.4-1.9h137.5c1.7,0,3.2,0.6,4.4,1.9
		C149.4,67.6,150,69,150,70.7z M150,120.7v12.5c0,1.7-0.6,3.2-1.9,4.4c-1.2,1.2-2.7,1.9-4.4,1.9H6.3c-1.7,0-3.2-0.6-4.4-1.9
		c-1.2-1.2-1.9-2.7-1.9-4.4v-12.5c0-1.7,0.6-3.2,1.9-4.4c1.2-1.2,2.7-1.9,4.4-1.9h137.5c1.7,0,3.2,0.6,4.4,1.9
		C149.4,117.6,150,119,150,120.7z"/>
</g>
</svg>
