<?xml version="1.0" encoding="UTF-8"?>
<svg width="24px" height="24px" viewBox="0 0 24 24" version="1.1" xmlns="http://www.w3.org/2000/svg" xmlns:xlink="http://www.w3.org/1999/xlink">
    <title>Icon / Header Main / Menu / Outline Copy 4</title>
    <g id="Symbols" stroke="none" stroke-width="1" fill="none" fill-rule="evenodd">
        <g id="D-/-Header-/-main-/-Supermercado-/-Logado-/-V1" transform="translate(-1072.000000, -15.000000)" fill="#FFFFFF">
            <g id="Icon-/-Header-Top-/-Usuario--/-Outline" transform="translate(1072.000000, 15.000000)">
                <path d="M12,-6.03961325e-14 C18.627417,-6.03961325e-14 24,5.372583 24,12 C24,18.627417 18.627417,24 12,24 C5.372583,24 -6.03961325e-14,18.627417 -6.03961325e-14,12 C-6.03961325e-14,5.372583 5.372583,-6.03961325e-14 12,-6.03961325e-14 Z M12,5.50734409 C9.18634836,5.50734409 7.81892608,7.21681424 7.81892608,10.844209 C7.81892608,12.9039543 8.25023331,14.3051322 9.01140084,15.3804324 C9.14901533,15.5748402 10.2904418,16.8077556 10.354581,17.1925909 C10.4088313,17.5180927 10.280504,17.8120787 10.0010229,18.0915598 C9.23755571,18.855027 7.65866025,19.7565223 5.23941699,20.8235713 C7.11147777,22.2611624 9.45593091,23.1158199 12,23.1158199 C14.5440691,23.1158199 16.8885222,22.2611624 18.7619074,20.8232996 C16.3413397,19.7565223 14.7624443,18.855027 13.9989771,18.0915598 C13.719496,17.8120787 13.5911687,17.5180927 13.645419,17.1925909 C13.7095582,16.8077556 14.8509847,15.5748402 14.9885992,15.3804324 C15.7497667,14.3051322 16.1810739,12.9039543 16.1810739,10.844209 C16.1810739,7.21681424 14.8136516,5.50734409 12,5.50734409 Z M12,0.884180111 C5.86090219,0.884180111 0.884180111,5.86090219 0.884180111,12 C0.884180111,15.240443 2.27075413,18.1570343 4.482958,20.1888297 C7.03428443,19.0862974 8.67291988,18.1692434 9.37581314,17.4663501 C9.47119535,17.3709679 9.48330899,17.3432166 9.48243109,17.3379492 C9.46943567,17.2599768 8.57370186,16.292447 8.2897289,15.8912789 C7.42111082,14.6641835 6.93474597,13.084141 6.93474597,10.844209 C6.93474597,6.76645083 8.64918256,4.62316398 12,4.62316398 C15.3508174,4.62316398 17.065254,6.76645083 17.065254,10.844209 C17.065254,13.084141 16.5788892,14.6641835 15.7102711,15.8912789 C15.4262981,16.292447 14.5305643,17.2599768 14.5175689,17.3379492 C14.516691,17.3432166 14.5288046,17.3709679 14.6241869,17.4663501 C15.3427,18.1848632 17.0390059,19.1271611 19.6868103,20.2620966 L19.517042,20.1888297 C21.7292459,18.1570343 23.1158199,15.240443 23.1158199,12 C23.1158199,5.86090219 18.1390978,0.884180111 12,0.884180111 Z" id="Combined-Shape"></path>
            </g>
        </g>
    </g>
</svg>